<?xml version="1.0" encoding="utf-8"?>
<!-- Generator: Adobe Illustrator 26.5.1, SVG Export Plug-In . SVG Version: 6.00 Build 0)  -->
<svg version="1.1" id="Layer_1" xmlns="http://www.w3.org/2000/svg" xmlns:xlink="http://www.w3.org/1999/xlink" x="0px" y="0px"
	 viewBox="0 0 100.6 55.9242" style="enable-background:new 0 0 100.6 55.9242;" xml:space="preserve">
<line style="fill:none;stroke:#000000;stroke-miterlimit:10;" x1="0" y1="55" x2="100.6" y2="53.951"/>
<line style="fill:none;stroke:#000000;stroke-miterlimit:10;" x1="59.0956" y1="25.5268" x2="68.0745" y2="6.1444"/>
<line style="fill:none;stroke:#000000;stroke-miterlimit:10;" x1="39.2138" y1="22.9791" x2="53.0944" y2="11.9391"/>
<line style="fill:none;stroke:#000000;stroke-miterlimit:10;" x1="61.2487" y1="20.881" x2="53.0944" y2="11.9391"/>
<line style="fill:none;stroke:#000000;stroke-miterlimit:10;" x1="16.0337" y1="24.4278" x2="17.9119" y2="7.5931"/>
<line style="fill:none;stroke:#000000;stroke-miterlimit:10;" x1="22.8137" y1="20.881" x2="17.9119" y2="7.5931"/>
<line style="fill:none;stroke:#000000;stroke-miterlimit:10;" x1="77.2824" y1="24.4777" x2="81.3138" y2="3.5967"/>
<line style="fill:none;stroke:#000000;stroke-miterlimit:10;" x1="90.2468" y1="24.8774" x2="81.3138" y2="3.5967"/>
<line style="fill:none;stroke:#000000;stroke-miterlimit:10;" x1="53.0944" y1="11.9391" x2="40.863" y2="26.4759"/>
<line style="fill:none;stroke:#000000;stroke-miterlimit:10;" x1="33.2127" y1="53.5513" x2="32.3423" y2="55"/>
<line style="fill:none;stroke:#000000;stroke-miterlimit:10;" x1="53.0944" y1="11.9391" x2="60.2867" y2="22.9791"/>
<line style="fill:none;stroke:#000000;stroke-miterlimit:10;" x1="81.3138" y1="3.5967" x2="75.4958" y2="20.2816"/>
<line style="fill:none;stroke:#000000;stroke-miterlimit:10;" x1="71.6935" y1="52.1026" x2="70.4108" y2="53.951"/>
<polyline style="fill:#170B14;stroke:#000000;stroke-miterlimit:10;" points="59.0956,55 56.1179,19.1826 39.2138,54.5005 
	33.2127,53.5513 28.54,0 45.1234,35.6676 42.6954,39.3143 28.54,0 20.0192,31.1717 17.9119,7.5931 28.54,0 22.8137,34.5686 
	23.4092,36.9164 21.9891,54.5005 13.6057,20.2816 8.2459,54.5005 0,55 13.6057,20.2816 33.2127,53.5513 56.1179,19.1826 
	71.6935,52.1026 95.6066,17.0345 92.9496,53.951 100.6,53.951 95.6066,17.0345 76.2288,54.2007 69.5862,47.6567 68.0745,6.1444 
	82.9171,35.6676 68.0745,6.1444 60.9281,29.3733 48.6966,30.2725 53.0944,11.9391 "/>
<rect x="22.0511" y="16.7342" style="fill:#170B14;stroke:#000000;stroke-miterlimit:10;" width="8.6461" height="12.1932"/>
<rect x="21.3306" y="22.9791" style="fill:#170B14;stroke:#000000;stroke-miterlimit:10;" width="6.8171" height="14.6498"/>
<rect x="16.9119" y="12.6329" transform="matrix(0.988 0.1544 -0.1544 0.988 3.3398 -2.4214)" style="fill:#170B14;stroke:#000000;stroke-miterlimit:10;" width="0.7029" height="15.3292"/>
<rect x="23.215" y="8.0327" style="fill:#170B14;stroke:#000000;stroke-miterlimit:10;" width="2.7712" height="12.2648"/>
<rect x="18.1714" y="18.2307" style="fill:#170B14;stroke:#000000;stroke-miterlimit:10;" width="17.1259" height="28.2106"/>
<rect x="29.4922" y="3.8332" transform="matrix(0.9659 -0.2588 0.2588 0.9659 -2.0697 8.4085)" style="fill:#170B14;stroke:#000000;stroke-miterlimit:10;" width="2.8189" height="16.4643"/>
<rect x="16.9728" y="23.6622" style="fill:#170B14;stroke:#000000;stroke-miterlimit:10;" width="2.3625" height="3.1037"/>
<rect x="13.1832" y="22.9791" style="fill:#170B14;stroke:#000000;stroke-miterlimit:10;" width="1.4411" height="30.5722"/>
<rect x="12.3525" y="28.2825" style="fill:#170B14;stroke:#000000;stroke-miterlimit:10;" width="82.913" height="15.7756"/>
<rect x="10.135" y="35.024" style="fill:#170B14;stroke:#000000;stroke-miterlimit:10;" width="83.8003" height="18.0028"/>
<rect x="8.8049" y="48.3256" style="fill:#170B14;stroke:#000000;stroke-miterlimit:10;" width="84.1447" height="5.6254"/>
<rect x="34.7985" y="20.881" style="fill:#170B14;stroke:#000000;stroke-miterlimit:10;" width="2.3832" height="12.8682"/>
<rect x="36.7383" y="25.8237" style="fill:#170B14;stroke:#000000;stroke-miterlimit:10;" width="2.2172" height="3.1037"/>
<rect x="39.842" y="22.8308" style="fill:#170B14;stroke:#000000;stroke-miterlimit:10;" width="49.1606" height="7.2605"/>
<rect x="88.1713" y="24.4777" style="fill:#170B14;stroke:#000000;stroke-miterlimit:10;" width="7.0942" height="4.1172"/>
<rect x="94.3788" y="19.2075" style="fill:#170B14;stroke:#000000;stroke-miterlimit:10;" width="0.4988" height="7.0042"/>
<rect x="93.31" y="21.4394" style="fill:#170B14;stroke:#000000;stroke-miterlimit:10;" width="0.6254" height="4.7723"/>
<rect x="92.5072" y="22.9791" style="fill:#170B14;stroke:#000000;stroke-miterlimit:10;" width="1.1155" height="1.8983"/>
<rect x="68.0745" y="9.8063" style="fill:#170B14;stroke:#000000;stroke-miterlimit:10;" width="1.3083" height="16.0174"/>
<rect x="67.7755" y="18.6186" style="fill:#170B14;stroke:#000000;stroke-miterlimit:10;" width="5.8092" height="5.8092"/>
<rect x="73.5846" y="20.0042" style="fill:#170B14;stroke:#000000;stroke-miterlimit:10;" width="14.1433" height="5.2098"/>
<rect x="87.2291" y="21.4394" style="fill:#170B14;stroke:#000000;stroke-miterlimit:10;" width="1.7736" height="1.3914"/>
<rect x="53.0944" y="14.5727" style="fill:#170B14;stroke:#000000;stroke-miterlimit:10;" width="2.5433" height="9.905"/>
<rect x="52.7522" y="13.3658" style="fill:#170B14;stroke:#000000;stroke-miterlimit:10;" width="1.6139" height="1.2069"/>
<rect x="56.1365" y="17.815" style="fill:#170B14;stroke:#000000;stroke-miterlimit:10;" width="1.035" height="6.6128"/>
<rect x="58.0764" y="20.2975" style="fill:#170B14;stroke:#000000;stroke-miterlimit:10;" width="10.3088" height="4.5799"/>
<rect x="64.4223" y="14.5727" style="fill:#170B14;stroke:#000000;stroke-miterlimit:10;" width="0.8036" height="8.7569"/>
<rect x="56.6905" y="15.7342" transform="matrix(-0.7877 0.616 -0.616 -0.7877 112.4769 -4.0198)" style="fill:#170B14;stroke:#000000;stroke-miterlimit:10;" width="0.481" height="3.27"/>
<rect x="57.1715" y="19.5252" style="fill:#170B14;stroke:#000000;stroke-miterlimit:10;" width="2.8408" height="0.7564"/>
<rect x="58.1277" y="18.509" style="fill:#170B14;stroke:#000000;stroke-miterlimit:10;" width="0.9679" height="0.9679"/>
<rect x="40.863" y="22.1351" style="fill:#170B14;stroke:#000000;stroke-miterlimit:10;" width="12.6961" height="0.8869"/>
<rect x="42.3915" y="20.881" style="fill:#170B14;stroke:#000000;stroke-miterlimit:10;" width="10.3606" height="1.2541"/>
<rect x="45.9386" y="18.6186" style="fill:#170B14;stroke:#000000;stroke-miterlimit:10;" width="6.8135" height="1.6789"/>
<rect x="48.211" y="16.7342" style="fill:#170B14;stroke:#000000;stroke-miterlimit:10;" width="5.598" height="1.7748"/>
<rect x="50.3" y="15.2602" style="fill:#170B14;stroke:#000000;stroke-miterlimit:10;" width="2.4522" height="0.3101"/>
<rect x="51.5261" y="13.9693" style="fill:#170B14;stroke:#000000;stroke-miterlimit:10;" width="0.5091" height="4.2614"/>
<rect x="50.6221" y="16.4101" style="fill:#170B14;stroke:#000000;stroke-miterlimit:10;" width="2.1301" height="3.048"/>
<rect x="45.863" y="12.9391" transform="matrix(0.616 0.7877 -0.7877 0.616 32.6925 -29.3045)" style="fill:#170B14;stroke:#000000;stroke-miterlimit:10;" width="1.0851" height="11.8864"/>
<rect x="64.7769" y="9.0467" transform="matrix(0.9079 0.4192 -0.4192 0.9079 12.3017 -26.0033)" style="fill:#170B14;stroke:#000000;stroke-miterlimit:10;" width="1.0851" height="11.8864"/>
<rect x="70.7769" y="8.0467" transform="matrix(0.866 -0.5 0.5 0.866 2.56 37.534)" style="fill:#170B14;stroke:#000000;stroke-miterlimit:10;" width="1.0851" height="11.8864"/>
<rect x="68.0745" y="13.3658" style="fill:#170B14;stroke:#000000;stroke-miterlimit:10;" width="1.9733" height="6.9317"/>
<rect x="69.3828" y="14.99" style="fill:#170B14;stroke:#000000;stroke-miterlimit:10;" width="2.8266" height="4.5352"/>
<rect x="74.9805" y="19.4581" style="fill:#170B14;stroke:#000000;stroke-miterlimit:10;" width="3.258" height="0.0671"/>
<rect x="81.3138" y="5.7604" style="fill:#170B14;stroke:#000000;stroke-miterlimit:10;" width="0.7055" height="22.8345"/>
<rect x="77.918" y="15.5703" style="fill:#170B14;stroke:#000000;stroke-miterlimit:10;" width="7.8623" height="5.5511"/>
<rect x="78.7769" y="7.0467" transform="matrix(0.9525 0.3044 -0.3044 0.9525 7.7194 -23.5306)" style="fill:#170B14;stroke:#000000;stroke-miterlimit:10;" width="1.0851" height="11.8864"/>
<rect x="83.7769" y="7.0467" transform="matrix(0.9422 -0.3349 0.3349 0.9422 0.519 28.9897)" style="fill:#170B14;stroke:#000000;stroke-miterlimit:10;" width="1.0851" height="11.8864"/>
<rect x="80.3734" y="11.4744" transform="matrix(0.0903 -0.9959 0.9959 0.0903 60.4468 94.484)" style="fill:#170B14;stroke:#000000;stroke-miterlimit:10;" width="3.1423" height="5.3573"/>
<rect x="80.6563" y="10.5893" style="fill:#170B14;stroke:#000000;stroke-miterlimit:10;" width="2.3052" height="2.7765"/>
<rect x="84.8459" y="17.9341" style="fill:#170B14;stroke:#000000;stroke-miterlimit:10;" width="2.3475" height="2.3475"/>
<rect x="76.6095" y="18.2307" style="fill:#170B14;stroke:#000000;stroke-miterlimit:10;" width="0.4654" height="1.7736"/>
</svg>
