<?xml version="1.0" encoding="utf-8"?>
<!-- Generator: Adobe Illustrator 26.5.1, SVG Export Plug-In . SVG Version: 6.00 Build 0)  -->
<svg version="1.1" id="Layer_1" xmlns="http://www.w3.org/2000/svg" xmlns:xlink="http://www.w3.org/1999/xlink" x="0px" y="0px"
	 viewBox="0 0 88.4827 51.2706" style="enable-background:new 0 0 88.4827 51.2706;" xml:space="preserve">
<line style="fill:none;stroke:#000000;stroke-miterlimit:10;" x1="70.3318" y1="50.0338" x2="7.9355" y2="53.1551"/>
<line style="fill:none;stroke:#000000;stroke-miterlimit:10;" x1="192.0355" y1="167.5551" x2="192.7355" y2="167.5551"/>
<line style="fill:none;stroke:#000000;stroke-miterlimit:10;" x1="66.6729" y1="50.2105" x2="83.7355" y2="47.472"/>
<polyline style="fill:#100D09;stroke:#000000;stroke-miterlimit:10;" points="62.8597,50.2105 65.2863,17.8198 70.3318,50.0338 
	68.329,37.2248 75.9167,16.3181 79.8068,48.0904 83.7355,47.472 75.9167,16.3181 67.058,29.0682 54.7328,26.7714 41.8684,2.6551 
	59.3932,22.8257 65.2863,17.8198 45.6045,51.2706 40.4817,51.5945 65.2863,17.8198 47.7229,32.749 28.1566,11.8423 18.1423,33.809 
	7.9355,53.1551 11.7872,45.8819 13.0582,18.4382 16.2165,37.2248 19.3749,31.0705 13.0582,18.4382 22.2636,24.7691 38.71,39.816 
	28.1566,11.8423 16.2165,52.7429 22.6487,52.4189 47.7229,32.749 41.8684,2.6551 39.1337,23.5618 35.5902,19.7633 41.8684,2.6551 
	"/>
<rect x="13.6104" y="21.7226" style="fill:#100D09;stroke:#000000;stroke-miterlimit:10;" width="2.607" height="16.7052"/>
<rect x="14.9139" y="25.9575" style="fill:#100D09;stroke:#000000;stroke-miterlimit:10;" width="51.0184" height="13.0522"/>
<rect x="41.3764" y="6.4167" style="fill:#100D09;stroke:#000000;stroke-miterlimit:10;" width="2.525" height="27.2724"/>
<rect x="39.994" y="14.1523" style="fill:#100D09;stroke:#000000;stroke-miterlimit:10;" width="9.228" height="18.3313"/>
<rect x="47.8919" y="18.7247" style="fill:#100D09;stroke:#000000;stroke-miterlimit:10;" width="6.4014" height="8.4798"/>
<rect x="44.608" y="9.8316" style="fill:#100D09;stroke:#000000;stroke-miterlimit:10;" width="2.6188" height="6.3183"/>
<rect x="56.5379" y="22.9646" style="fill:#100D09;stroke:#000000;stroke-miterlimit:10;" width="8.8955" height="4.2399"/>
<rect x="63.6463" y="20.0529" style="fill:#100D09;stroke:#000000;stroke-miterlimit:10;" width="1.122" height="3.9094"/>
<rect x="59.6116" y="21.3827" transform="matrix(-0.7634 0.6459 -0.6459 -0.7634 122.2885 -1.4479)" style="fill:#100D09;stroke:#000000;stroke-miterlimit:10;" width="3.5957" height="0.5819"/>
<rect x="14.9139" y="38.4278" style="fill:#100D09;stroke:#000000;stroke-miterlimit:10;" width="49.2935" height="6.152"/>
<rect x="64.7683" y="30.0752" style="fill:#100D09;stroke:#000000;stroke-miterlimit:10;" width="13.7173" height="16.7493"/>
<rect x="65.4334" y="28.7655" style="fill:#100D09;stroke:#000000;stroke-miterlimit:10;" width="1.8583" height="1.8583"/>
<rect x="75.2042" y="19.6392" style="fill:#100D09;stroke:#000000;stroke-miterlimit:10;" width="0.3717" height="11.9715"/>
<rect x="72.9156" y="23.3179" style="fill:#100D09;stroke:#000000;stroke-miterlimit:10;" width="3.5748" height="7.3058"/>
<rect x="71.627" y="26.9708" style="fill:#100D09;stroke:#000000;stroke-miterlimit:10;" width="3.7631" height="3.7631"/>
<rect x="74.1409" y="21.2109" style="fill:#100D09;stroke:#000000;stroke-miterlimit:10;" width="2.3495" height="2.3495"/>
<rect x="75.3901" y="18.7247" style="fill:#100D09;stroke:#000000;stroke-miterlimit:10;" width="0.8509" height="0.3325"/>
<rect x="13.6104" y="42.3989" style="fill:#100D09;stroke:#000000;stroke-miterlimit:10;" width="66.0803" height="4.7429"/>
<rect x="12.5259" y="41.0663" transform="matrix(0.866 0.5 -0.5 0.866 25.2689 -0.8224)" style="fill:#100D09;stroke:#000000;stroke-miterlimit:10;" width="3.2863" height="11.3498"/>
<rect x="14.9139" y="45.6605" style="fill:#100D09;stroke:#000000;stroke-miterlimit:10;" width="27.725" height="5.0713"/>
<rect x="12.3931" y="49.5679" style="fill:#100D09;stroke:#000000;stroke-miterlimit:10;" width="27.6009" height="1.1639"/>
<rect x="8.9335" y="51.2706" style="fill:#100D09;stroke:#000000;stroke-miterlimit:10;" width="11.7732" height="1.207"/>
<rect x="23.8658" y="50.2105" style="fill:#100D09;stroke:#000000;stroke-miterlimit:10;" width="15.2679" height="1.384"/>
<rect x="46.6505" y="46.7412" style="fill:#100D09;stroke:#000000;stroke-miterlimit:10;" width="23.1656" height="3.4693"/>
<rect x="70.9203" y="46.7412" style="fill:#100D09;stroke:#000000;stroke-miterlimit:10;" width="8.3031" height="1.455"/>
<rect x="69.4239" y="47.8221" style="fill:#100D09;stroke:#000000;stroke-miterlimit:10;" width="3.4917" height="1.0192"/>
</svg>
