<?xml version="1.0" encoding="utf-8"?>
<!-- Generator: Adobe Illustrator 26.5.1, SVG Export Plug-In . SVG Version: 6.00 Build 0)  -->
<svg version="1.1" id="Layer_1" xmlns="http://www.w3.org/2000/svg" xmlns:xlink="http://www.w3.org/1999/xlink" x="0px" y="0px"
	 viewBox="0 0 80.7 115" style="enable-background:new 0 0 80.7 115;" xml:space="preserve">
<line style="fill:none;stroke:#51C4F1;stroke-miterlimit:10;" x1="33.7742" y1="100.6561" x2="17.6653" y2="106.1102"/>
<line style="fill:none;stroke:#51C4F1;stroke-miterlimit:10;" x1="35.5835" y1="40.9516" x2="35.9921" y2="41.88"/>
<line style="fill:none;stroke:#51C4F1;stroke-miterlimit:10;" x1="50.4667" y1="55.6312" x2="49.9998" y2="56.7916"/>
<line style="fill:none;stroke:#51C4F1;stroke-miterlimit:10;" x1="56.42" y1="102.1067" x2="55.778" y2="103.5572"/>
<polyline style="fill:#0A141A;" points="45.1554,17.3948 25.9532,68.6281 25.7197,6.0225 35.5835,40.9516 32.1983,52.0338 
	25.7197,6.0225 21.0505,48.4945 33.7742,100.6561 10.4864,5.2102 17.6653,106.1102 5,102.3387 10.4864,5.2102 27.354,102.8029 
	45.1554,102.1067 45.1554,17.3948 55.778,103.5572 33.7742,100.6561 44.7469,18.4972 47.6651,37.6444 52.3927,12.3469 
	63.4822,28.3609 60.5056,35.2655 52.3927,12.3469 52.276,52.0338 50.4667,55.6312 70.5444,14.8418 56.42,102.1067 55.778,103.5572 
	80.7,98.1031 70.5444,14.8418 70.3693,16.1763 50.8169,63.29 "/>
<rect x="14.0758" y="55.6602" style="fill:#0A141A;" width="20.4217" height="12.6892"/>
<rect x="31.1722" y="39.7509" style="fill:#0A141A;" width="32.0902" height="60.9052"/>
<rect x="16.2078" y="50.5585" style="fill:#0A141A;" width="7.3159" height="52.9987"/>
<rect x="34.374" y="93.3922" transform="matrix(0.9865 0.164 -0.164 0.9865 16.5563 -5.3599)" style="fill:#0A141A;" width="12.7197" height="8.3637"/>
<rect x="53.785" y="97.574" style="fill:#0A141A;" width="3.8242" height="5.2579"/>
<rect x="10.2451" y="9.4815" style="fill:#0A141A;" width="1.1272" height="8.18"/>
<rect x="10.2451" y="28.2782" style="fill:#0A141A;" width="4.7988" height="59.026"/>
<rect x="12.6445" y="63.0287" style="fill:#0A141A;" width="10.8792" height="28.9311"/>
<rect x="20.8634" y="79.4895" style="fill:#0A141A;" width="10.3088" height="20.7135"/>
<rect x="17.5853" y="99.2446" transform="matrix(-0.9584 0.2853 -0.2853 -0.9584 74.2801 191.9967)" style="fill:#0A141A;" width="11.1401" height="4.3284"/>
<rect x="14.0758" y="98.7769" style="fill:#0A141A;" width="5.851" height="5.851"/>
<rect x="25.8598" y="43.5751" style="fill:#0A141A;" width="10.1323" height="19.4537"/>
<rect x="57.6092" y="35.0953" style="fill:#0A141A;" width="9.6437" height="29.7624"/>
<rect x="52.36" y="23.4575" style="fill:#0A141A;" width="5.2492" height="35.0819"/>
<rect x="54.9846" y="30.7723" style="fill:#0A141A;" width="14.4298" height="12.8028"/>
<rect x="65.9227" y="24.2772" style="fill:#0A141A;" width="3.0945" height="10.818"/>
<rect x="52.0668" y="15.5308" style="fill:#0A141A;" width="1.1639" height="15.6294"/>
<rect x="52.0668" y="33.2663" style="fill:#0A141A;" width="2.7158" height="10.3087"/>
<rect x="57.1658" y="27.0035" style="fill:#0A141A;" width="3.9905" height="5.3761"/>
<rect x="64.3709" y="27.6685" style="fill:#0A141A;" width="4.323" height="6.3737"/>
<rect x="61.9877" y="28.2782" style="fill:#0A141A;" width="3.3808" height="4.9881"/>
<rect x="65.3685" y="26.6155" style="fill:#0A141A;" width="1.3856" height="1.6627"/>
<rect x="67.47" y="22.5696" style="fill:#0A141A;" width="2.4432" height="3.658"/>
<rect x="66.5324" y="23.3455" style="fill:#0A141A;" width="3.1591" height="2.0763"/>
<rect x="68.0172" y="17.6876" transform="matrix(-0.9073 -0.4205 0.4205 -0.9073 122.6558 67.0073)" style="fill:#0A141A;" width="1.3948" height="4.5897"/>
<rect x="52.36" y="18.3574" style="fill:#0A141A;" width="3.6973" height="10.6967"/>
<rect x="55.614" y="22.0153" style="fill:#0A141A;" width="1.2747" height="2.5495"/>
<rect x="68.4722" y="19.223" transform="matrix(0.9352 0.354 -0.354 0.9352 12.0786 -23.0933)" style="fill:#0A141A;" width="1.3631" height="4.4828"/>
<rect x="67.47" y="21.725" style="fill:#0A141A;" width="0.8564" height="4.8905"/>
<rect x="52.3859" y="14.6438" style="fill:#0A141A;" width="1.2882" height="8.6463"/>
<rect x="53.2307" y="16.5284" style="fill:#0A141A;" width="1.7539" height="4.5447"/>
<rect x="53.4247" y="15.8079" style="fill:#0A141A;" width="0.683" height="1.3837"/>
<rect x="66.7541" y="23.2901" style="fill:#0A141A;" width="1.3579" height="0"/>
<rect x="69.658" y="16.7688" style="fill:#0A141A;" width="1.1215" height="1.1215"/>
<rect x="53.0668" y="13.8008" transform="matrix(0.963 -0.2696 0.2696 0.963 -2.6643 15.0735)" style="fill:#0A141A;" width="0.9632" height="6.8725"/>
<rect x="42.85" y="26.6155" style="fill:#0A141A;" width="2.7323" height="17.4584"/>
<rect x="41.7581" y="32.8784" style="fill:#0A141A;" width="2.0507" height="8.5374"/>
<rect x="45.2161" y="18.4644" transform="matrix(0.9942 -0.1075 0.1075 0.9942 -2.3973 5.0428)" style="fill:#0A141A;" width="0.7011" height="12.5779"/>
<rect x="42.7834" y="24.648" style="fill:#0A141A;" width="2.7989" height="2.7989"/>
<rect x="43.8087" y="22.5696" style="fill:#0A141A;" width="1.394" height="2.0784"/>
<rect x="44.2161" y="20.8515" style="fill:#0A141A;" width="0.9228" height="1.9398"/>
<rect x="44.5057" y="19.7917" style="fill:#0A141A;" width="0.1718" height="1.6726"/>
<rect x="66.8098" y="22.5696" style="fill:#0A141A;" width="1.5165" height="2.1837"/>
<rect x="69.7529" y="17.6615" style="fill:#0A141A;" width="0.6591" height="1.3054"/>
<rect x="70.3693" y="16.1763" style="fill:#0A141A;" width="0.0427" height="1.0607"/>
<rect x="44.3158" y="19.4659" style="fill:#0A141A;" width="0.8231" height="2.2591"/>
<rect x="52.2346" y="13.1929" style="fill:#0A141A;" width="0.7954" height="0.9544"/>
<rect x="52.36" y="12.5217" style="fill:#0A141A;" width="0.2723" height="1.1484"/>
<rect x="25.519" y="22.3479" style="fill:#0A141A;" width="4.0459" height="23.167"/>
<rect x="29.4309" y="32.3795" style="fill:#0A141A;" width="2.4618" height="13.5788"/>
<rect x="25.519" y="11.8728" style="fill:#0A141A;" width="1.053" height="12.5257"/>
<rect x="26.2395" y="14.1474" style="fill:#0A141A;" width="1.829" height="10.2512"/>
<rect x="26.2395" y="10.7644" style="fill:#0A141A;" width="0.6941" height="3.8794"/>
<rect x="25.7308" y="8.9909" style="fill:#0A141A;" width="0.5087" height="2.882"/>
<rect x="26.0455" y="8.3364" transform="matrix(-0.9762 0.2169 -0.2169 -0.9762 53.9104 13.2952)" style="fill:#0A141A;" width="0.3603" height="2.5388"/>
<rect x="14.0758" y="41.88" style="fill:#0A141A;" width="2.132" height="14.3314"/>
<rect x="13.5475" y="39.7509" style="fill:#0A141A;" width="5.0435" height="11.5281"/>
<rect x="14.0758" y="31.8253" style="fill:#0A141A;" width="2.5961" height="9.1732"/>
<rect x="10.8087" y="16.1763" style="fill:#0A141A;" width="1.8358" height="13.9863"/>
<rect x="12.0511" y="17.6615" transform="matrix(-1 -1.224647e-16 1.224647e-16 -1 24.9889 47.353)" style="fill:#0A141A;" width="0.8868" height="12.03"/>
<rect x="12.0511" y="23.6765" style="fill:#0A141A;" width="2.3278" height="6.0098"/>
<rect x="12.9379" y="26.0474" style="fill:#0A141A;" width="2.436" height="5.7779"/>
<rect x="11.7266" y="20.5954" style="fill:#0A141A;" width="2.0368" height="3.5748"/>
<rect x="12.0511" y="18.8008" style="fill:#0A141A;" width="1.177" height="2.2724"/>
<rect x="10.8087" y="11.8728" style="fill:#0A141A;" width="0.5799" height="6.0174"/>
<rect x="11.0813" y="13.5715" style="fill:#0A141A;" width="0.9698" height="1.9593"/>
<rect x="10.2451" y="14.6438" style="fill:#0A141A;" width="2.2055" height="2.2055"/>
<rect x="10.8087" y="11.8728" style="fill:#0A141A;" width="1.2424" height="3.0087"/>
<rect x="11.0986" y="10.7644" style="fill:#0A141A;" width="0.628" height="1.6215"/>
</svg>
