<?xml version="1.0" encoding="utf-8"?>
<!-- Generator: Adobe Illustrator 26.5.1, SVG Export Plug-In . SVG Version: 6.00 Build 0)  -->
<svg version="1.1" id="Layer_1" xmlns="http://www.w3.org/2000/svg" xmlns:xlink="http://www.w3.org/1999/xlink" x="0px" y="0px"
	 viewBox="0 0 100.7536 51.4746" style="enable-background:new 0 0 100.7536 51.4746;" xml:space="preserve">
<rect x="24.7486" y="29.6746" transform="matrix(0.8451 -0.5347 0.5347 0.8451 -14.5439 22.3924)" style="fill:#0E0D09;" width="13.2327" height="13.2327"/>
<rect x="46.8838" y="17.372" transform="matrix(0.866 0.5 -0.5 0.866 20.3187 -23.1243)" style="fill:#0E0D09;" width="12.8522" height="17.9622"/>
<rect x="50.3768" y="25.7373" style="fill:#0E0D09;" width="8.4248" height="14.8112"/>
<rect x="84.7351" y="28.701" style="fill:#0E0D09;" width="7.6484" height="14.5301"/>
<rect x="80.5783" y="12.4064" style="fill:#0E0D09;" width="4.9881" height="16.2945"/>
<rect x="66.631" y="2.2314" style="fill:#0E0D09;" width="7.7412" height="16.3612"/>
<rect x="59.6282" y="21.2989" transform="matrix(0.7609 0.6489 -0.6489 0.7609 33.3477 -37.786)" style="fill:#0E0D09;" width="16.6271" height="10.1084"/>
<rect x="69.9864" y="6.3869" transform="matrix(0.866 0.5 -0.5 0.866 15.0908 -35.0659)" style="fill:#0E0D09;" width="5.9857" height="8.4798"/>
<rect x="56.4691" y="26.3531" style="fill:#0E0D09;" width="18.4194" height="5.0519"/>
<rect x="59.4619" y="25.7373" transform="matrix(0.7742 -0.6329 0.6329 0.7742 -4.2733 48.6329)" style="fill:#0E0D09;" width="13.1354" height="9.1375"/>
<rect x="65.5593" y="13.9029" transform="matrix(0.8476 0.5307 -0.5307 0.8476 20.1718 -34.2224)" style="fill:#0E0D09;" width="8.2019" height="8.2019"/>
<rect x="55.3318" y="31.405" style="fill:#0E0D09;" width="3.4698" height="3.4698"/>
<rect x="35.2185" y="37.9107" transform="matrix(0.6329 0.7742 -0.7742 0.6329 47.3981 -16.0991)" style="fill:#0E0D09;" width="10.9155" height="8.046"/>
<rect x="38.5119" y="35.1348" style="fill:#0E0D09;" width="9.4774" height="16.1925"/>
<rect x="42.1698" y="31.405" style="fill:#0E0D09;" width="11.6389" height="6.9397"/>
<rect x="55.3318" y="47.9883" style="fill:#0E0D09;" width="4.7953" height="3.339"/>
<rect x="53.3099" y="32.3589" style="fill:#0E0D09;" width="9.0415" height="5.5518"/>
<rect x="49.0821" y="36.7897" style="fill:#0E0D09;" width="16.5967" height="13.859"/>
<rect x="56.4691" y="28.701" style="fill:#0E0D09;" width="18.4194" height="18.4194"/>
<rect x="40.4937" y="33.6891" style="fill:#0E0D09;" width="10.7863" height="13.6342"/>
<g>
	<polygon style="fill:#0E0D09;" points="34.8535,39.9648 46.134,31.8408 37.8954,22.8452 	"/>
	<polygon style="fill:#0E0D09;" points="46.134,31.8408 51.3212,40.5485 64.5295,18.5926 	"/>
	<polygon style="fill:#0E0D09;" points="0,51.4746 44.8141,51.3648 19.2484,22.1048 	"/>
	<polygon style="fill:#0E0D09;" points="44.8142,51.3649 44.8143,51.3648 44.8141,51.3648 	"/>
	<polygon style="fill:#0E0D09;" points="74.8885,1.3731 57.7458,51.3331 100.7536,51.2278 	"/>
	<polygon style="fill:#0E0D09;" points="44.8143,51.3648 57.7458,51.3331 51.3212,40.5485 	"/>
	<polygon style="fill:#0E0D09;" points="74.8885,1.3731 64.5295,18.5926 64.5296,18.5925 	"/>
</g>
</svg>
