<?xml version="1.0" encoding="utf-8"?>
<!-- Generator: Adobe Illustrator 26.5.1, SVG Export Plug-In . SVG Version: 6.00 Build 0)  -->
<svg version="1.1" id="Layer_1" xmlns="http://www.w3.org/2000/svg" xmlns:xlink="http://www.w3.org/1999/xlink" x="0px" y="0px"
	 viewBox="0 0 55.9 68.7" style="enable-background:new 0 0 55.9 68.7;" xml:space="preserve">
<g id="Layer_2_00000091720584664607385810000006398953760098678197_">
</g>
<g>
	<line style="fill:#071B28;stroke:#000000;stroke-miterlimit:10;" x1="55" y1="11.2" x2="52.8" y2="56.2"/>
	<line style="fill:#071B28;stroke:#000000;stroke-miterlimit:10;" x1="10.9" y1="42.7" x2="17.3" y2="48.2"/>
	<line style="fill:#071B28;stroke:#000000;stroke-miterlimit:10;" x1="18.4" y1="33.7" x2="10.9" y2="42.7"/>
	<line style="fill:#071B28;stroke:#000000;stroke-miterlimit:10;" x1="10" y1="26.5" x2="18.4" y2="33.7"/>
	<line style="fill:#071B28;stroke:#000000;stroke-miterlimit:10;" x1="11.7" y1="19" x2="10" y2="26.5"/>
	<line style="fill:#071B28;stroke:#000000;stroke-miterlimit:10;" x1="8.6" y1="13.7" x2="11.7" y2="19"/>
	<line style="fill:#071B28;stroke:#000000;stroke-miterlimit:10;" x1="0.9" y1="14.6" x2="10.9" y2="2.4"/>
	<line style="fill:#071B28;stroke:#000000;stroke-miterlimit:10;" x1="8.6" y1="13.7" x2="10.9" y2="2.4"/>
	<line style="fill:#071B28;stroke:#000000;stroke-miterlimit:10;" x1="2.4" y1="61.8" x2="51" y2="60.7"/>
	<g id="XMLID_00000078045404760712235900000010350026610378267818_">
		<line style="fill:#071B28;stroke:#000000;stroke-miterlimit:10;" x1="51" y1="60.7" x2="52.8" y2="56.2"/>
		<line style="fill:#071B28;stroke:#000000;stroke-miterlimit:10;" x1="12.9" y1="56.4" x2="44.8" y2="56.3"/>
		<line style="fill:#071B28;stroke:#000000;stroke-miterlimit:10;" x1="39.7" y1="52.3" x2="44.8" y2="56.3"/>
		<line style="fill:#071B28;stroke:#000000;stroke-miterlimit:10;" x1="12.9" y1="56.4" x2="17.3" y2="48.3"/>
		<line style="fill:#071B28;stroke:#000000;stroke-miterlimit:10;" x1="1.3" y1="56.5" x2="2.4" y2="61.8"/>
		<line style="fill:#071B28;stroke:#000000;stroke-miterlimit:10;" x1="0.9" y1="14.6" x2="1.3" y2="56.5"/>
	</g>
	<line style="fill:#071B28;stroke:#000000;stroke-miterlimit:10;" x1="44.3" y1="47.6" x2="39.7" y2="52.3"/>
	<line style="fill:#071B28;stroke:#000000;stroke-miterlimit:10;" x1="39.7" y1="39.8" x2="44.3" y2="47.6"/>
	<line style="fill:#071B28;stroke:#000000;stroke-miterlimit:10;" x1="48.8" y1="33.7" x2="39.7" y2="39.8"/>
	<line style="fill:#071B28;stroke:#000000;stroke-miterlimit:10;" x1="42.2" y1="27" x2="48.8" y2="33.7"/>
	<line style="fill:#071B28;stroke:#000000;stroke-miterlimit:10;" x1="45.5" y1="18.3" x2="42.2" y2="27"/>
	<line style="fill:#071B28;stroke:#000000;stroke-miterlimit:10;" x1="39" y1="8.5" x2="45.5" y2="18.3"/>
	<line style="fill:#071B28;stroke:#000000;stroke-miterlimit:10;" x1="55" y1="11.2" x2="42" y2="-0.3"/>
	<line style="fill:#071B28;stroke:#000000;stroke-miterlimit:10;" x1="39" y1="8.5" x2="30.8" y2="8.5"/>
	<line style="fill:#071B28;stroke:#000000;stroke-miterlimit:10;" x1="42" y1="-0.3" x2="30.8" y2="8.5"/>
	<line style="fill:#071B28;stroke:#000000;stroke-miterlimit:10;" x1="5.9" y1="61.7" x2="7.1" y2="67.1"/>
	<line style="fill:#071B28;stroke:#000000;stroke-miterlimit:10;" x1="45.5" y1="60.8" x2="44.2" y2="65.5"/>
	<line style="fill:#071B28;stroke:#000000;stroke-miterlimit:10;" x1="7.1" y1="67.1" x2="44.2" y2="65.5"/>
</g>
</svg>
