<?xml version="1.0" encoding="utf-8"?>
<!-- Generator: Adobe Illustrator 26.5.1, SVG Export Plug-In . SVG Version: 6.00 Build 0)  -->
<svg version="1.1" id="Layer_1" xmlns="http://www.w3.org/2000/svg" xmlns:xlink="http://www.w3.org/1999/xlink" x="0px" y="0px"
	 viewBox="0 0 292.9496 200.347" style="enable-background:new 0 0 292.9496 200.347;" xml:space="preserve">
<polygon style="fill:#6ABD45;stroke:#000000;stroke-miterlimit:10;" points="120.1496,193.851 94.6711,194.7881 81.1204,173.1915 
	93.0481,150.6581 118.5266,149.7211 132.0774,171.3176 "/>
<polygon style="fill:#6ABD45;stroke:#000000;stroke-miterlimit:10;" points="157.505,170.4765 132.0265,171.4137 118.4758,149.8172 
	130.4035,127.2836 155.882,126.3465 169.4328,147.9431 "/>
<polygon style="fill:#6ABD45;stroke:#000000;stroke-miterlimit:10;" points="196.5342,191.136 171.0558,192.073 157.505,170.4765 
	169.4328,147.9431 194.9113,147.006 208.462,168.6024 "/>
<polygon style="fill:#6ABD45;stroke:#000000;stroke-miterlimit:10;" points="234.243,167.0939 208.7645,168.0309 195.2138,146.4344 
	207.1415,123.9009 232.62,122.9639 246.1707,144.5603 "/>
<polygon style="fill:#6ABD45;stroke:#000000;stroke-miterlimit:10;" points="232.4438,123.2969 206.9653,124.2338 
	193.4145,102.6374 205.3423,80.1039 230.8207,79.1668 244.3715,100.7634 "/>
<polygon style="fill:#6ABD45;stroke:#000000;stroke-miterlimit:10;" points="269.49,99.6172 244.0115,100.5543 230.4607,78.9577 
	242.3885,56.4243 267.867,55.4872 281.4177,77.0836 "/>
<circle style="fill:#F4EC4C;stroke:#010101;stroke-miterlimit:10;" cx="265.9103" cy="73.4583" r="3.5625"/>
<polyline style="fill:none;stroke:#000000;stroke-miterlimit:10;" points="285.9258,30.489 261.5784,54.8365 261.5784,20.8258 "/>
<circle style="fill:#ED1B5C;stroke:#000000;stroke-miterlimit:10;" cx="261.5784" cy="16.8786" r="3.9472"/>
<circle style="fill:#ED1B5C;stroke:#000000;stroke-miterlimit:10;" cx="289.0024" cy="27.305" r="3.9472"/>
<polygon style="fill:#6ABD45;stroke:#000000;stroke-miterlimit:10;" points="81.1204,173.1915 55.6419,174.1286 42.0912,152.5322 
	54.0189,129.9986 79.4974,129.0616 93.0481,150.6581 "/>
<polygon style="fill:#6ABD45;stroke:#000000;stroke-miterlimit:10;" points="43.4657,197.1315 17.9872,198.0686 4.4365,176.4722 
	16.3642,153.9386 41.8427,153.0016 55.3934,174.5981 "/>
<polygon style="fill:#F4EC4C;stroke:#010101;stroke-miterlimit:10;" points="199.7243,100.9954 209.9191,84.7473 229.0879,85.4521 
	238.0617,102.4053 227.8668,118.6535 208.6981,117.9484 "/>
<polygon style="fill:#F4EC4C;stroke:#010101;stroke-miterlimit:10;" points="201.5235,144.7924 211.7184,128.5443 
	230.8872,129.2493 239.861,146.2025 229.6661,162.4505 210.4973,161.7455 "/>
<polygon style="fill:#F4EC4C;stroke:#010101;stroke-miterlimit:10;" points="163.8148,167.326 174.0096,151.0779 193.1784,151.7827 
	202.1522,168.7359 191.9573,184.9841 172.7886,184.2791 "/>
<polygon style="fill:#F4EC4C;stroke:#010101;stroke-miterlimit:10;" points="124.7856,148.1752 134.9804,131.9269 
	154.1492,132.6319 163.123,149.5851 152.9281,165.8333 133.7594,165.1283 "/>
<polygon style="fill:#F4EC4C;stroke:#010101;stroke-miterlimit:10;" points="86.4481,170.7086 96.643,154.4606 115.8118,155.1655 
	124.7856,172.1187 114.5907,188.3667 95.4219,187.6617 "/>
<polygon style="fill:#F4EC4C;stroke:#010101;stroke-miterlimit:10;" points="48.4009,150.3728 58.5958,134.1247 77.7646,134.8297 
	86.7384,151.7829 76.5435,168.0309 57.3747,167.326 "/>
<polygon style="fill:#F4EC4C;stroke:#010101;stroke-miterlimit:10;" points="10.0634,174.8302 20.2583,158.582 39.4271,159.287 
	48.4009,176.24 38.206,192.4882 19.0372,191.7832 "/>
</svg>
