<?xml version="1.0" encoding="utf-8"?>
<!-- Generator: Adobe Illustrator 26.5.1, SVG Export Plug-In . SVG Version: 6.00 Build 0)  -->
<svg version="1.1" id="Layer_1" xmlns="http://www.w3.org/2000/svg" xmlns:xlink="http://www.w3.org/1999/xlink" x="0px" y="0px"
	 viewBox="0 0 280.3388 168.4061" style="enable-background:new 0 0 280.3388 168.4061;" xml:space="preserve">
<polygon style="fill:#6ABD45;stroke:#000000;stroke-miterlimit:10;" points="115.4138,139.4034 89.9353,140.3404 76.3846,118.7439 
	88.3123,96.2103 113.7908,95.2732 127.3416,116.8698 "/>
<polygon style="fill:#6ABD45;stroke:#000000;stroke-miterlimit:10;" points="154.443,160.0628 128.9645,160.9999 115.4138,139.4034 
	127.3416,116.8698 152.82,115.9327 166.3708,137.5293 "/>
<polygon style="fill:#6ABD45;stroke:#000000;stroke-miterlimit:10;" points="191.7578,136.765 166.2793,137.702 152.7286,116.1054 
	164.6564,93.5719 190.1348,92.6348 203.6856,114.2313 "/>
<polygon style="fill:#6ABD45;stroke:#000000;stroke-miterlimit:10;" points="231.181,156.6802 205.7025,157.6172 192.1518,136.0207 
	204.0795,113.4872 229.558,112.5501 243.1088,134.1467 "/>
<polygon style="fill:#6ABD45;stroke:#000000;stroke-miterlimit:10;" points="268.411,133.5426 242.9325,134.4796 229.3818,112.883 
	241.3095,90.3495 266.788,89.4124 280.3388,111.0089 "/>
<polygon style="fill:#6ABD45;stroke:#000000;stroke-miterlimit:10;" points="266.428,89.2034 240.9495,90.1404 227.3988,68.5439 
	239.3265,46.0104 264.805,45.0733 278.3558,66.6698 "/>
<circle style="fill:#F4EC4C;stroke:#010101;stroke-miterlimit:10;" cx="262.8483" cy="63.0444" r="3.5625"/>
<polyline style="fill:none;stroke:#000000;stroke-miterlimit:10;" points="257.3966,10.3566 257.7972,44.7867 233.4698,21.0189 "/>
<circle style="fill:#ED1B5C;stroke:#000000;stroke-miterlimit:10;" cx="230.6465" cy="18.2605" r="3.9472"/>
<circle style="fill:#ED1B5C;stroke:#000000;stroke-miterlimit:10;" cx="257.5777" cy="6.2323" r="3.9472"/>
<polygon style="fill:#6ABD45;stroke:#000000;stroke-miterlimit:10;" points="78.0584,162.7778 52.58,163.7149 39.0292,142.1184 
	50.957,119.5848 76.4354,118.6478 89.9862,140.2443 "/>
<polygon style="fill:#6ABD45;stroke:#000000;stroke-miterlimit:10;" points="39.0292,142.1184 13.5507,143.0554 0,121.4588 
	11.9277,98.9253 37.4062,97.9883 50.957,119.5848 "/>
<polygon style="fill:#F4EC4C;stroke:#010101;stroke-miterlimit:10;" points="82.6741,115.2277 92.8689,98.9797 112.0377,99.6845 
	121.0115,116.6377 110.8166,132.8858 91.6479,132.1809 "/>
<polygon style="fill:#F4EC4C;stroke:#010101;stroke-miterlimit:10;" points="45.339,137.7614 55.5338,121.5131 74.7026,122.2181 
	83.6764,139.1712 73.4815,155.4194 54.3128,154.7145 "/>
<polygon style="fill:#F4EC4C;stroke:#010101;stroke-miterlimit:10;" points="6.3098,119.8168 16.5046,103.5687 35.6734,104.2737 
	44.6472,121.2269 34.4523,137.475 15.2836,136.77 "/>
<polygon style="fill:#F4EC4C;stroke:#010101;stroke-miterlimit:10;" points="198.4616,133.7746 208.6564,117.5265 
	227.8252,118.2313 236.799,135.1846 226.6041,151.4327 207.4354,150.7277 "/>
<polygon style="fill:#F4EC4C;stroke:#010101;stroke-miterlimit:10;" points="159.0384,114.4634 169.2332,98.2152 188.402,98.9202 
	197.3758,115.8734 187.1809,132.1216 168.0122,131.4165 "/>
<polygon style="fill:#F4EC4C;stroke:#010101;stroke-miterlimit:10;" points="121.9003,136.77 132.0952,120.5219 151.2639,121.2269 
	160.2377,138.18 150.0428,154.4281 130.8741,153.7231 "/>
<polygon style="fill:#F4EC4C;stroke:#010101;stroke-miterlimit:10;" points="235.4027,111.2411 245.5975,94.9929 264.7663,95.6978 
	273.7401,112.6509 263.5452,128.8992 244.3765,128.1942 "/>
</svg>
