<?xml version="1.0" encoding="utf-8"?>
<!-- Generator: Adobe Illustrator 26.5.1, SVG Export Plug-In . SVG Version: 6.00 Build 0)  -->
<svg version="1.1" id="Layer_1" xmlns="http://www.w3.org/2000/svg" xmlns:xlink="http://www.w3.org/1999/xlink" x="0px" y="0px"
	 viewBox="0 0 294.0487 194" style="enable-background:new 0 0 294.0487 194;" xml:space="preserve">
<polygon style="fill:#6ABD45;stroke:#000000;stroke-miterlimit:10;" points="166.4078,165.8176 179.9586,144.2211 
	205.4371,145.1581 217.3647,167.6916 203.8141,189.2881 178.3356,188.3511 "/>
<polygon style="fill:#6ABD45;stroke:#000000;stroke-miterlimit:10;" points="129.0524,142.4431 142.6031,120.8466 
	168.0817,121.7836 180.0094,144.3172 166.4586,165.9137 140.9802,164.9766 "/>
<polygon style="fill:#6ABD45;stroke:#000000;stroke-miterlimit:10;" points="90.0232,163.1025 103.5739,141.506 129.0524,142.4431 
	140.9802,164.9766 127.4294,186.5731 101.951,185.6361 "/>
<polygon style="fill:#6ABD45;stroke:#000000;stroke-miterlimit:10;" points="52.3145,139.0604 65.8652,117.4639 91.3437,118.401 
	103.2714,140.9345 89.7207,162.531 64.2422,161.594 "/>
<polygon style="fill:#6ABD45;stroke:#000000;stroke-miterlimit:10;" points="54.1137,95.2634 67.6645,73.6669 93.1429,74.6039 
	105.0707,97.1374 91.5199,118.7339 66.0414,117.7969 "/>
<polygon style="fill:#6ABD45;stroke:#000000;stroke-miterlimit:10;" points="17.0675,71.5837 30.6182,49.9872 56.0967,50.9243 
	68.0245,73.4578 54.4737,95.0543 28.9952,94.1173 "/>
<circle style="fill:#F4EC4C;stroke:#010101;stroke-miterlimit:10;" cx="32.5749" cy="67.9583" r="3.5625"/>
<polyline style="fill:none;stroke:#010101;stroke-miterlimit:10;" points="36.9068,15.3258 36.9068,49.3365 12.5594,24.9891 "/>
<circle style="fill:#ED1B5C;stroke:#000000;stroke-miterlimit:10;" cx="36.9068" cy="11.3786" r="3.9472"/>
<circle style="fill:#ED1B5C;stroke:#000000;stroke-miterlimit:10;" cx="9.4828" cy="22.2364" r="3.9472"/>
<polygon style="fill:#6ABD45;stroke:#000000;stroke-miterlimit:10;" points="205.4371,145.1581 218.9878,123.5616 
	244.4662,124.4986 256.394,147.0322 242.8433,168.6287 217.3647,167.6916 "/>
<polygon style="fill:#6ABD45;stroke:#000000;stroke-miterlimit:10;" points="243.0918,169.0981 256.6425,147.5016 282.121,148.4386 
	294.0487,170.9722 280.498,192.5686 255.0195,191.6316 "/>
<polygon style="fill:#F4EC4C;stroke:#010101;stroke-miterlimit:10;" points="59.4235,94.4954 69.6183,78.2472 88.7871,78.9522 
	97.7609,95.9054 87.566,112.1535 68.3973,111.4485 "/>
<polygon style="fill:#F4EC4C;stroke:#010101;stroke-miterlimit:10;" points="56.823,139.2924 67.0179,123.0443 86.1867,123.7492 
	95.1605,140.7024 84.9656,156.9505 65.7969,156.2455 "/>
<polygon style="fill:#F4EC4C;stroke:#010101;stroke-miterlimit:10;" points="96.333,160.4692 106.5278,144.2211 125.6966,144.926 
	134.6704,161.8792 124.4755,178.1273 105.3068,177.4223 "/>
<polygon style="fill:#F4EC4C;stroke:#010101;stroke-miterlimit:10;" points="135.3622,139.2924 145.557,123.0443 164.7258,123.7492 
	173.6996,140.7024 163.5047,156.9505 144.336,156.2455 "/>
<polygon style="fill:#F4EC4C;stroke:#010101;stroke-miterlimit:10;" points="172.8673,165.2087 183.0621,148.9604 
	202.2309,149.6655 211.2047,166.6187 201.0098,182.8668 181.8411,182.1618 "/>
<polygon style="fill:#F4EC4C;stroke:#010101;stroke-miterlimit:10;" points="211.2047,143.5161 221.3996,127.2679 
	240.5684,127.9729 249.5422,144.9261 239.3473,161.1742 220.1785,160.4692 "/>
<polygon style="fill:#F4EC4C;stroke:#010101;stroke-miterlimit:10;" points="247.0365,167.9237 257.2314,151.6755 
	276.4001,152.3805 285.374,169.3337 275.1791,185.5818 256.0103,184.8768 "/>
</svg>
