<?xml version="1.0" encoding="utf-8"?>
<!-- Generator: Adobe Illustrator 26.5.1, SVG Export Plug-In . SVG Version: 6.00 Build 0)  -->
<svg version="1.1" id="Layer_1" xmlns="http://www.w3.org/2000/svg" xmlns:xlink="http://www.w3.org/1999/xlink" x="0px" y="0px"
	 viewBox="0 0 280.3388 161.4297" style="enable-background:new 0 0 280.3388 161.4297;" xml:space="preserve">
<polygon style="fill:#6ABD45;stroke:#000000;stroke-miterlimit:10;" points="152.9972,115.8698 166.548,94.2732 192.0265,95.2103 
	203.9542,117.7439 190.4035,139.3404 164.925,138.4034 "/>
<polygon style="fill:#6ABD45;stroke:#000000;stroke-miterlimit:10;" points="113.968,136.5292 127.5188,114.9327 152.9972,115.8698 
	164.925,138.4034 151.3743,159.9998 125.8958,159.0627 "/>
<polygon style="fill:#6ABD45;stroke:#000000;stroke-miterlimit:10;" points="76.6532,113.2313 90.204,91.6348 115.6824,92.5719 
	127.6102,115.1054 114.0595,136.7019 88.581,135.765 "/>
<polygon style="fill:#6ABD45;stroke:#000000;stroke-miterlimit:10;" points="37.23,133.1466 50.7808,111.5501 76.2593,112.4872 
	88.187,135.0207 74.6363,156.6172 49.1578,155.6801 "/>
<polygon style="fill:#6ABD45;stroke:#000000;stroke-miterlimit:10;" points="0,110.0089 13.5508,88.4124 39.0293,89.3495 
	50.957,111.883 37.4063,133.4796 11.9278,132.5425 "/>
<polygon style="fill:#6ABD45;stroke:#000000;stroke-miterlimit:10;" points="1.983,65.6698 15.5338,44.0733 41.0123,45.0104 
	52.94,67.5439 39.3893,89.1404 13.9108,88.2034 "/>
<circle style="fill:#F4EC4C;stroke:#010101;stroke-miterlimit:10;" cx="19.1311" cy="62.0444" r="3.5625"/>
<polyline style="fill:none;stroke:#010101;stroke-miterlimit:10;" points="46.869,20.0189 22.5416,43.7867 22.9422,9.3566 "/>
<circle style="fill:#ED1B5C;stroke:#000000;stroke-miterlimit:10;" cx="49.6923" cy="17.2605" r="3.9472"/>
<circle style="fill:#ED1B5C;stroke:#000000;stroke-miterlimit:10;" cx="22.7611" cy="5.2323" r="3.9472"/>
<polygon style="fill:#6ABD45;stroke:#000000;stroke-miterlimit:10;" points="190.3526,139.2443 203.9034,117.6478 
	229.3818,118.5848 241.3096,141.1183 227.7588,162.7148 202.2804,161.7777 "/>
<polygon style="fill:#6ABD45;stroke:#000000;stroke-miterlimit:10;" points="229.3818,118.5848 242.9326,96.9883 268.4111,97.9253 
	280.3388,120.4588 266.7881,142.0554 241.3096,141.1183 "/>
<polygon style="fill:#F4EC4C;stroke:#010101;stroke-miterlimit:10;" points="5.233,110.2411 15.4278,93.9929 34.5966,94.6978 
	43.5704,111.651 33.3755,127.8991 14.2068,127.1941 "/>
<polygon style="fill:#F4EC4C;stroke:#010101;stroke-miterlimit:10;" points="45.1804,132.7747 55.3752,116.5265 74.544,117.2314 
	83.5178,134.1845 73.3229,150.4327 54.1542,149.7278 "/>
<polygon style="fill:#F4EC4C;stroke:#010101;stroke-miterlimit:10;" points="235.6916,118.8168 245.8864,102.5687 
	265.0552,103.2737 274.029,120.2269 263.8341,136.4749 244.6654,135.77 "/>
<polygon style="fill:#F4EC4C;stroke:#010101;stroke-miterlimit:10;" points="194.222,138.6353 204.4169,122.3872 223.5856,123.0921 
	232.5594,140.0453 222.3645,156.2935 203.1958,155.5884 "/>
<polygon style="fill:#F4EC4C;stroke:#010101;stroke-miterlimit:10;" points="84.449,113.4634 94.6438,97.2152 113.8126,97.9202 
	122.7864,114.8734 112.5915,131.1216 93.4228,130.4165 "/>
<polygon style="fill:#F4EC4C;stroke:#010101;stroke-miterlimit:10;" points="122.6413,136.7614 132.8361,120.5131 
	152.0049,121.2181 160.9787,138.1714 150.7838,154.4194 131.6151,153.7144 "/>
<polygon style="fill:#F4EC4C;stroke:#010101;stroke-miterlimit:10;" points="160.8271,113.4634 171.022,97.2152 190.1908,97.9202 
	199.1646,114.8734 188.9697,131.1216 169.8009,130.4165 "/>
</svg>
