<?xml version="1.0" encoding="utf-8"?>
<!-- Generator: Adobe Illustrator 26.5.1, SVG Export Plug-In . SVG Version: 6.00 Build 0)  -->
<svg version="1.1" id="Layer_1" xmlns="http://www.w3.org/2000/svg" xmlns:xlink="http://www.w3.org/1999/xlink" x="0px" y="0px"
	 viewBox="0 0 201.789 249.4908" style="enable-background:new 0 0 201.789 249.4908;" xml:space="preserve">
<polygon style="fill:#6ABD45;stroke:#000000;stroke-miterlimit:10;" points="115.223,220.0059 89.7445,220.9424 76.1938,199.3573 
	88.1215,176.8357 113.6,175.8991 127.1508,197.4842 "/>
<polygon style="fill:#6ABD45;stroke:#000000;stroke-miterlimit:10;" points="152.7439,196.3312 127.2654,197.2677 
	113.7147,175.6826 125.6424,153.1611 151.1209,152.2244 164.6717,173.8095 "/>
<polygon style="fill:#6ABD45;stroke:#000000;stroke-miterlimit:10;" points="113.7147,175.6826 88.2362,176.6192 74.6855,155.0341 
	86.6132,132.5125 112.0917,131.5759 125.6424,153.1611 "/>
<polygon style="fill:#6ABD45;stroke:#000000;stroke-miterlimit:10;" points="111.8687,131.9969 86.3902,132.9335 72.8395,111.3484 
	84.7672,88.8267 110.2457,87.8902 123.7964,109.4753 "/>
<polygon style="fill:#6ABD45;stroke:#000000;stroke-miterlimit:10;" points="149.1703,108.7363 123.6918,109.6728 110.1411,88.0877 
	122.0688,65.5661 147.5473,64.6296 161.0981,86.2147 "/>
<polygon style="fill:#6ABD45;stroke:#000000;stroke-miterlimit:10;" points="187.646,85.2152 162.1675,86.1517 148.6167,64.5666 
	160.5445,42.045 186.023,41.1084 199.5737,62.6935 "/>
<ellipse style="fill:#FFFFFF;stroke:#000000;stroke-miterlimit:10;" cx="187.1047" cy="62.1068" rx="6.6008" ry="6.5973"/>
<polyline style="fill:none;stroke:#000000;stroke-miterlimit:10;" points="186.4968,7.5664 186.7375,41.9799 162.5208,18.112 "/>
<ellipse style="fill:#ED1B5C;stroke:#000000;stroke-miterlimit:10;" cx="159.7102" cy="15.3418" rx="3.9472" ry="3.9451"/>
<ellipse style="fill:#ED1B5C;stroke:#000000;stroke-miterlimit:10;" cx="186.6971" cy="3.4451" rx="3.9472" ry="3.9451"/>
<polygon style="fill:#6ABD45;stroke:#000000;stroke-miterlimit:10;" points="77.7641,243.5635 52.2856,244.5 38.7349,222.9149 
	50.6626,200.3933 76.1411,199.4568 89.6919,221.0419 "/>
<polygon style="fill:#6ABD45;stroke:#000000;stroke-miterlimit:10;" points="39.0292,222.5416 13.5507,223.4782 0,201.8931 
	11.9277,179.3714 37.4062,178.4349 50.957,200.02 "/>
<circle style="fill:#F4EC4C;stroke:#010101;stroke-miterlimit:10;" cx="188.5137" cy="63.4151" r="2.5865"/>
<polygon style="fill:#F4EC4C;stroke:#010101;stroke-miterlimit:10;" points="82.6714,151.5198 92.8662,135.2802 112.035,135.9848 
	121.0088,152.9291 110.8139,169.1686 91.6452,168.464 "/>
<polygon style="fill:#F4EC4C;stroke:#010101;stroke-miterlimit:10;" points="120.1923,172.5642 130.3871,156.3247 
	149.5559,157.0292 158.5296,173.9734 148.3348,190.213 129.1661,189.5083 "/>
<polygon style="fill:#F4EC4C;stroke:#010101;stroke-miterlimit:10;" points="82.6714,196.5631 92.8662,180.3236 112.035,181.0281 
	121.0088,197.9724 110.8139,214.2119 91.6452,213.5073 "/>
<polygon style="fill:#F4EC4C;stroke:#010101;stroke-miterlimit:10;" points="45.2125,221.2738 55.4073,205.0342 74.5761,205.7388 
	83.5499,222.683 73.355,238.9225 54.1863,238.2179 "/>
<polygon style="fill:#F4EC4C;stroke:#010101;stroke-miterlimit:10;" points="6.4776,198.7522 16.6724,182.5125 35.8412,183.2172 
	44.815,200.1614 34.6201,216.401 15.4514,215.6963 "/>
<polygon style="fill:#F4EC4C;stroke:#010101;stroke-miterlimit:10;" points="117.7572,85.4471 127.9521,69.2075 147.1208,69.9121 
	156.0947,86.8564 145.8998,103.0959 126.731,102.3913 "/>
<polygon style="fill:#F4EC4C;stroke:#010101;stroke-miterlimit:10;" points="79.1492,108.9682 89.3441,92.7287 108.5129,93.4332 
	117.4867,110.3774 107.2918,126.617 88.123,125.9123 "/>
</svg>
