<?xml version="1.0" encoding="utf-8"?>
<!-- Generator: Adobe Illustrator 26.5.1, SVG Export Plug-In . SVG Version: 6.00 Build 0)  -->
<svg version="1.1" id="Layer_1" xmlns="http://www.w3.org/2000/svg" xmlns:xlink="http://www.w3.org/1999/xlink" x="0px" y="0px"
	 viewBox="0 0 212.2759 188.2367" style="enable-background:new 0 0 212.2759 188.2367;" xml:space="preserve">
<polygon style="fill:#6ABD45;stroke:#000000;stroke-miterlimit:10;" points="115.2664,181.5889 89.788,182.5258 76.2372,160.9294 
	88.165,138.3958 113.6435,137.4587 127.1942,159.0553 "/>
<polygon style="fill:#6ABD45;stroke:#000000;stroke-miterlimit:10;" points="152.7874,157.9016 127.3089,158.8387 
	113.7581,137.2422 125.6858,114.7087 151.1643,113.7716 164.7151,135.368 "/>
<polygon style="fill:#6ABD45;stroke:#000000;stroke-miterlimit:10;" points="113.7581,137.2422 88.2796,138.1791 74.7289,116.5828 
	86.6566,94.0492 112.1351,93.1122 125.6858,114.7087 "/>
<polygon style="fill:#6ABD45;stroke:#000000;stroke-miterlimit:10;" points="111.9121,93.5334 86.4337,94.4705 72.8829,72.874 
	84.8106,50.3404 110.2891,49.4034 123.8399,70.9999 "/>
<polygon style="fill:#6ABD45;stroke:#000000;stroke-miterlimit:10;" points="149.2137,70.2605 123.7353,71.1975 110.1845,49.601 
	122.1122,27.0675 147.5908,26.1305 161.1415,47.7269 "/>
<polygon style="fill:#6ABD45;stroke:#000000;stroke-miterlimit:10;" points="188.8162,91.2234 163.3377,92.1604 149.787,70.5639 
	161.7147,48.0304 187.1932,47.0933 200.744,68.6898 "/>
<circle style="fill:#FFFFFF;" cx="188.2749" cy="68.1028" r="6.6008"/>
<polyline style="fill:none;stroke:#000000;stroke-miterlimit:10;" points="205.2521,22.0952 180.9047,46.4426 180.9047,12.4318 "/>
<circle style="fill:#ED1B5C;stroke:#000000;stroke-miterlimit:10;" cx="180.9047" cy="8.4847" r="3.9472"/>
<circle style="fill:#ED1B5C;stroke:#000000;stroke-miterlimit:10;" cx="208.3287" cy="19.3425" r="3.9472"/>
<polygon style="fill:#6ABD45;stroke:#000000;stroke-miterlimit:10;" points="76.2372,160.9294 50.7587,161.8664 37.208,140.2699 
	49.1357,117.7364 74.6142,116.7994 88.165,138.3958 "/>
<polygon style="fill:#6ABD45;stroke:#000000;stroke-miterlimit:10;" points="39.0292,184.5255 13.5507,185.4626 0,163.8661 
	11.9277,141.3326 37.4062,140.3954 50.9569,161.9919 "/>
<circle style="fill:#F4EC4C;stroke:#010101;stroke-miterlimit:10;" cx="188.2749" cy="68.1028" r="3.9472"/>
<polygon style="fill:#F4EC4C;stroke:#010101;stroke-miterlimit:10;" points="82.547,114.9407 92.7419,98.6926 111.9106,99.3975 
	120.8844,116.3507 110.6896,132.5988 91.5208,131.8938 "/>
<polygon style="fill:#F4EC4C;stroke:#010101;stroke-miterlimit:10;" points="120.0679,135.6002 130.2628,119.352 149.4315,120.057 
	158.4053,137.0102 148.2104,153.2582 129.0417,152.5533 "/>
<polygon style="fill:#F4EC4C;stroke:#010101;stroke-miterlimit:10;" points="116.4943,47.959 126.6891,31.7109 145.8579,32.4158 
	154.8317,49.369 144.6368,65.6171 125.4681,64.912 "/>
<polygon style="fill:#F4EC4C;stroke:#010101;stroke-miterlimit:10;" points="82.547,159.2874 92.7419,143.0392 111.9106,143.7441 
	120.8844,160.6974 110.6896,176.9455 91.5208,176.2404 "/>
<polygon style="fill:#F4EC4C;stroke:#010101;stroke-miterlimit:10;" points="44.6472,136.7538 54.842,120.5057 74.0108,121.2106 
	82.9846,138.1638 72.7897,154.4119 53.621,153.7068 "/>
<polygon style="fill:#F4EC4C;stroke:#010101;stroke-miterlimit:10;" points="6.3097,162.2241 16.5046,145.9759 35.6734,146.6808 
	44.6472,163.6341 34.4523,179.8821 15.2835,179.1772 "/>
<polygon style="fill:#F4EC4C;stroke:#010101;stroke-miterlimit:10;" points="79.1927,70.4925 89.3875,54.2444 108.5563,54.9493 
	117.5301,71.9025 107.3352,88.1506 88.1665,87.4455 "/>
</svg>
