<?xml version="1.0" encoding="utf-8"?>
<!-- Generator: Adobe Illustrator 26.5.1, SVG Export Plug-In . SVG Version: 6.00 Build 0)  -->
<svg version="1.1" id="Layer_1" xmlns="http://www.w3.org/2000/svg" xmlns:xlink="http://www.w3.org/1999/xlink" x="0px" y="0px"
	 viewBox="0 0 268.3557 142.1698" style="enable-background:new 0 0 268.3557 142.1698;" xml:space="preserve">
<polygon style="fill:#6ABD45;stroke:#000000;stroke-miterlimit:10;" points="13.6707,142.1698 0,120.649 11.8022,98.0495 
	37.2751,96.9706 50.9458,118.4915 39.1436,141.091 "/>
<polygon style="fill:#6ABD45;stroke:#000000;stroke-miterlimit:10;" points="112.1655,48.914 86.687,49.851 73.1362,28.2545 
	85.064,5.721 110.5425,4.784 124.0932,26.3804 "/>
<polygon style="fill:#6ABD45;stroke:#000000;stroke-miterlimit:10;" points="113.8608,93.1878 88.3823,94.1248 74.8315,72.5283 
	86.7593,49.9948 112.2378,49.0577 125.7885,70.6542 "/>
<polygon style="fill:#6ABD45;stroke:#000000;stroke-miterlimit:10;" points="151.8417,68.9028 126.3632,69.8399 112.8125,48.2434 
	124.7402,25.7099 150.2187,24.7728 163.7695,46.3693 "/>
<polygon style="fill:#6ABD45;stroke:#000000;stroke-miterlimit:10;" points="191.3808,88.4919 165.9024,89.4289 152.3516,67.8324 
	164.2794,45.2989 189.7579,44.3618 203.3086,65.9583 "/>
<polygon style="fill:#6ABD45;stroke:#000000;stroke-miterlimit:10;" points="230.4364,109.1652 204.9579,110.1023 191.4072,88.5058 
	203.3349,65.9722 228.8134,65.0352 242.3642,86.6317 "/>
<ellipse style="fill:#F4EC4C;stroke:#010101;stroke-miterlimit:10;" cx="223.6525" cy="83.5063" rx="6.7667" ry="4.0625"/>
<polyline style="fill:none;stroke:#010101;stroke-miterlimit:10;" points="249.9863,37.1614 229.8231,65.0726 224.4115,31.4952 "/>
<circle style="fill:#ED1B5C;stroke:#000000;stroke-miterlimit:10;" cx="223.7834" cy="27.5983" r="3.9472"/>
<circle style="fill:#ED1B5C;stroke:#000000;stroke-miterlimit:10;" cx="252.5857" cy="33.9543" r="3.9472"/>
<polygon style="fill:#6ABD45;stroke:#000000;stroke-miterlimit:10;" points="74.4661,72.768 48.9877,73.7051 35.4369,52.1086 
	47.3647,29.575 72.8431,28.638 86.3939,50.2345 "/>
<polygon style="fill:#6ABD45;stroke:#000000;stroke-miterlimit:10;" points="51.7574,118.457 38.0867,96.9363 49.8889,74.3368 
	75.3618,73.2579 89.0325,94.7787 77.2303,117.3783 "/>
<polygon style="fill:#F4EC4C;stroke:#010101;stroke-miterlimit:10;" points="78.448,27.9331 88.6428,11.6849 107.8116,12.3899 
	116.7854,29.343 106.5905,45.5912 87.4218,44.8861 "/>
<polygon style="fill:#F4EC4C;stroke:#010101;stroke-miterlimit:10;" points="82.7747,70.0967 92.9695,53.8486 112.1383,54.5535 
	121.1121,71.5067 110.9172,87.7548 91.7485,87.0498 "/>
<polygon style="fill:#F4EC4C;stroke:#010101;stroke-miterlimit:10;" points="41.7467,49.1461 51.9415,32.8979 71.1103,33.6029 
	80.0841,50.556 69.8892,66.8042 50.7205,66.0992 "/>
<polygon style="fill:#F4EC4C;stroke:#010101;stroke-miterlimit:10;" points="54.5343,76.1839 73.7066,76.7821 82.7747,93.685 
	72.6703,109.9896 53.4979,109.3913 44.4299,92.4883 "/>
<polygon style="fill:#F4EC4C;stroke:#010101;stroke-miterlimit:10;" points="16.4048,101.5541 35.5773,102.1524 44.6453,119.0554 
	34.5409,135.36 15.3685,134.7617 6.3005,117.8587 "/>
<polygon style="fill:#F4EC4C;stroke:#010101;stroke-miterlimit:10;" points="119.8087,49.146 130.0036,32.8978 149.1724,33.6028 
	158.1462,50.556 147.9513,66.8041 128.7825,66.0991 "/>
<polygon style="fill:#F4EC4C;stroke:#010101;stroke-miterlimit:10;" points="158.6614,64.3677 168.8562,48.1195 188.025,48.8245 
	196.9988,65.7776 186.8039,82.0258 167.6352,81.3208 "/>
</svg>
