<?xml version="1.0" encoding="utf-8"?>
<!-- Generator: Adobe Illustrator 26.5.1, SVG Export Plug-In . SVG Version: 6.00 Build 0)  -->
<svg version="1.1" id="Layer_1" xmlns="http://www.w3.org/2000/svg" xmlns:xlink="http://www.w3.org/1999/xlink" x="0px" y="0px"
	 viewBox="0 0 800 528" style="enable-background:new 0 0 800 528;" xml:space="preserve">
<g>
	<rect y="0" style="fill:#9290C0;stroke:#FFFFFF;stroke-width:2;stroke-miterlimit:10;" width="800" height="528"/>
	<g>
		<line style="fill:none;" x1="448.8" y1="57.6" x2="444" y2="94.8"/>
		<ellipse style="fill:none;" cx="448.8" cy="57.6" rx="19.2" ry="31.2"/>
		<ellipse style="fill:none;" cx="448.8" cy="57.6" rx="22.4" ry="38.4"/>
		<polyline style="fill:none;" points="448.8,57.6 435.2,51.6 448.8,57.6 462.4,63.6 448.8,57.6 452,34.8 448.8,57.6 445.6,80.4 
			448.8,57.6 437.6,33.6 448.8,57.6 460,81.6 448.8,57.6 463.2,38.4 448.8,57.6 434.4,76.8 448.8,57.6 426.4,37.2 448.8,57.6 
			471.2,78 448.8,57.6 460.8,20.4 448.8,57.6 436.8,94.8 448.8,57.6 449.6,34.8 448.8,57.6 448.8,80.4 448.8,57.6 462.4,58.8 
			448.8,57.6 435.2,56.4 448.8,57.6 401.6,-62.4 448.8,57.6 496,177.6 448.8,57.6 520.8,-20.4 448.8,57.6 376.8,135.6 448.8,57.6 
			432.8,28.8 448.8,57.6 464.8,86.4 448.8,57.6 466.4,31.2 448.8,57.6 431.2,84 448.8,57.6 391.2,3.6 448.8,57.6 506.4,112.8 
			448.8,57.6 481.6,-38.4 448.8,57.6 416,153.6 448.8,57.6 445.6,46.8 448.8,57.6 452,68.4 448.8,57.6 455.2,52.8 448.8,57.6 
			442.4,62.4 448.8,57.6 415.2,-19.2 448.8,57.6 481.6,134.4 448.8,57.6 495.2,2.4 448.8,57.6 402.4,112.8 448.8,57.6 450.4,-38.4 
			448.8,57.6 447.2,153.6 448.8,57.6 506.4,60 448.8,57.6 391.2,55.2 448.8,57.6 417.6,25.2 448.8,57.6 480,90 448.8,57.6 468,6 
			448.8,57.6 429.6,109.2 448.8,57.6 384.8,12 448.8,57.6 513.6,103.2 448.8,57.6 476,-49.2 448.8,57.6 421.6,165.6 448.8,57.6 
			424.8,7.2 448.8,57.6 472.8,108 448.8,57.6 479.2,18 448.8,57.6 418.4,98.4 448.8,57.6 384,-56.4 448.8,57.6 513.6,171.6 
			448.8,57.6 517.6,-50.4 448.8,57.6 380,165.6 448.8,57.6 405.6,-72 448.8,57.6 492,187.2 448.8,57.6 526.4,-14.4 448.8,57.6 
			371.2,129.6 		"/>
		
			<radialGradient id="SVGID_1_" cx="4195.0264" cy="-6653.6934" r="29.0207" gradientTransform="matrix(1.5659 0 0 -2.6088 -6119.2168 -17300.5547)" gradientUnits="userSpaceOnUse">
			<stop  offset="0" style="stop-color:#230000"/>
			<stop  offset="0.73" style="stop-color:#93432A"/>
			<stop  offset="1" style="stop-color:#230000"/>
		</radialGradient>
		<ellipse style="opacity:0.15;fill:url(#SVGID_1_);enable-background:new    ;" cx="448.8" cy="57.6" rx="45.6" ry="75.6"/>
		
			<radialGradient id="SVGID_00000031919288574878179540000011143716594408376709_" cx="4195.0264" cy="-6653.7437" r="14.5163" gradientTransform="matrix(1.5659 0 0 -2.6088 -6119.2168 -17300.5547)" gradientUnits="userSpaceOnUse">
			<stop  offset="0.15" style="stop-color:#FFFFFF"/>
			<stop  offset="0.2114" style="stop-color:#E2D1D2"/>
			<stop  offset="0.2918" style="stop-color:#BF9A9C"/>
			<stop  offset="0.3613" style="stop-color:#A67276"/>
			<stop  offset="0.4163" style="stop-color:#975A5E"/>
			<stop  offset="0.45" style="stop-color:#915155"/>
			<stop  offset="0.5553" style="stop-color:#6C3638"/>
			<stop  offset="0.6842" style="stop-color:#44191A"/>
			<stop  offset="0.787" style="stop-color:#2C0707"/>
			<stop  offset="0.85" style="stop-color:#230000"/>
			<stop  offset="0.8572" style="stop-color:#270201"/>
			<stop  offset="0.8647" style="stop-color:#340805"/>
			<stop  offset="0.8723" style="stop-color:#48120B"/>
			<stop  offset="0.88" style="stop-color:#652114"/>
			<stop  offset="0.8878" style="stop-color:#8B331F"/>
			<stop  offset="0.8955" style="stop-color:#B8492D"/>
			<stop  offset="0.9" style="stop-color:#D65836"/>
			<stop  offset="0.903" style="stop-color:#C95232"/>
			<stop  offset="0.9146" style="stop-color:#9D3C25"/>
			<stop  offset="0.9267" style="stop-color:#782A1A"/>
			<stop  offset="0.9392" style="stop-color:#591B10"/>
			<stop  offset="0.9523" style="stop-color:#410F09"/>
			<stop  offset="0.9661" style="stop-color:#300604"/>
			<stop  offset="0.9812" style="stop-color:#260201"/>
			<stop  offset="1" style="stop-color:#230000"/>
		</radialGradient>
		
			<ellipse style="opacity:0.5;fill:url(#SVGID_00000031919288574878179540000011143716594408376709_);enable-background:new    ;" cx="448.8" cy="57.6" rx="22.4" ry="38.4"/>
		
			<radialGradient id="SVGID_00000003826823055875855420000002261567334324842668_" cx="4195.0264" cy="-6653.7437" r="12.0906" gradientTransform="matrix(1.5659 0 0 -2.6088 -6119.2168 -17300.5547)" gradientUnits="userSpaceOnUse">
			<stop  offset="0.15" style="stop-color:#FFFFFF"/>
			<stop  offset="0.2824" style="stop-color:#C2C2C2"/>
			<stop  offset="0.4253" style="stop-color:#888888"/>
			<stop  offset="0.5636" style="stop-color:#575757"/>
			<stop  offset="0.6936" style="stop-color:#313131"/>
			<stop  offset="0.8134" style="stop-color:#161616"/>
			<stop  offset="0.9192" style="stop-color:#060606"/>
			<stop  offset="1" style="stop-color:#000000"/>
		</radialGradient>
		
			<ellipse style="fill:url(#SVGID_00000003826823055875855420000002261567334324842668_);" cx="448.8" cy="57.6" rx="19.2" ry="31.2"/>
		
			<polyline style="opacity:0.03;fill:none;stroke:#FFFFFF;stroke-width:2;stroke-miterlimit:10;enable-background:new    ;" points="
			448.8,57.6 435.2,51.6 448.8,57.6 462.4,63.6 448.8,57.6 452,34.8 448.8,57.6 445.6,80.4 448.8,57.6 437.6,33.6 448.8,57.6 
			460,81.6 448.8,57.6 463.2,38.4 448.8,57.6 434.4,76.8 448.8,57.6 426.4,37.2 448.8,57.6 471.2,78 448.8,57.6 460.8,20.4 
			448.8,57.6 436.8,94.8 448.8,57.6 449.6,34.8 448.8,57.6 448.8,80.4 448.8,57.6 462.4,58.8 448.8,57.6 435.2,56.4 448.8,57.6 
			401.6,-62.4 448.8,57.6 496,177.6 448.8,57.6 520.8,-20.4 448.8,57.6 376.8,135.6 448.8,57.6 432.8,28.8 448.8,57.6 464.8,86.4 
			448.8,57.6 466.4,31.2 448.8,57.6 431.2,84 448.8,57.6 391.2,3.6 448.8,57.6 506.4,112.8 448.8,57.6 481.6,-38.4 448.8,57.6 
			416,153.6 448.8,57.6 445.6,46.8 448.8,57.6 452,68.4 448.8,57.6 455.2,52.8 448.8,57.6 442.4,62.4 448.8,57.6 415.2,-19.2 
			448.8,57.6 481.6,134.4 448.8,57.6 495.2,2.4 448.8,57.6 402.4,112.8 448.8,57.6 450.4,-38.4 448.8,57.6 447.2,153.6 448.8,57.6 
			506.4,60 448.8,57.6 391.2,55.2 448.8,57.6 417.6,25.2 448.8,57.6 480,90 448.8,57.6 468,6 448.8,57.6 429.6,109.2 448.8,57.6 
			384.8,12 448.8,57.6 513.6,103.2 448.8,57.6 476,-49.2 448.8,57.6 421.6,165.6 448.8,57.6 424.8,7.2 448.8,57.6 472.8,108 
			448.8,57.6 479.2,18 448.8,57.6 418.4,98.4 448.8,57.6 384,-56.4 448.8,57.6 513.6,171.6 448.8,57.6 517.6,-50.4 448.8,57.6 
			380,165.6 448.8,57.6 405.6,-72 448.8,57.6 492,187.2 448.8,57.6 526.4,-14.4 448.8,57.6 371.2,129.6 		"/>
	</g>
	<g>
		<line style="fill:none;" x1="128.8" y1="187.2" x2="148.8" y2="213.6"/>
		<ellipse style="fill:none;" cx="128.8" cy="187.2" rx="21.6" ry="36"/>
		<ellipse style="fill:none;" cx="128.8" cy="187.2" rx="25.6" ry="43.2"/>
		<polyline style="fill:none;" points="128.8,187.2 60,211.2 128.8,187.2 197.6,163.2 128.8,187.2 114.4,73.2 128.8,187.2 
			143.2,301.2 128.8,187.2 73.6,322.8 128.8,187.2 184,51.6 128.8,187.2 47.2,94.8 128.8,187.2 210.4,279.6 128.8,187.2 54.4,354 
			128.8,187.2 203.2,20.4 128.8,187.2 28,63.6 128.8,187.2 228.8,310.8 128.8,187.2 105.6,264 128.8,187.2 152,111.6 128.8,187.2 
			83.2,147.6 128.8,187.2 174.4,225.6 128.8,187.2 76.8,175.2 128.8,187.2 180.8,199.2 128.8,187.2 136,99.6 128.8,187.2 
			121.6,274.8 128.8,187.2 14.4,242.4 128.8,187.2 243.2,132 128.8,187.2 96,-3.6 128.8,187.2 161.6,378 128.8,187.2 41.6,225.6 
			128.8,187.2 216,148.8 128.8,187.2 105.6,42 128.8,187.2 152,332.4 128.8,187.2 37.6,295.2 128.8,187.2 220,79.2 128.8,187.2 
			64,34.8 128.8,187.2 193.6,339.6 128.8,187.2 32.8,298.8 128.8,187.2 224.8,75.6 128.8,187.2 61.6,27.6 128.8,187.2 196,346.8 
			128.8,187.2 127.2,187.2 128.8,187.2 130.4,187.2 128.8,187.2 128.8,183.6 128.8,187.2 128.8,189.6 128.8,187.2 61.6,280.8 
			128.8,187.2 196,93.6 128.8,187.2 72.8,75.6 128.8,187.2 184.8,298.8 128.8,187.2 128.8,189.6 128.8,187.2 128.8,184.8 
			128.8,187.2 127.2,186 128.8,187.2 130.4,188.4 128.8,187.2 106.4,344.4 128.8,187.2 151.2,30 128.8,187.2 34.4,150 128.8,187.2 
			223.2,224.4 128.8,187.2 113.6,228 128.8,187.2 144,146.4 128.8,187.2 104,162 128.8,187.2 153.6,212.4 128.8,187.2 116,264 
			128.8,187.2 141.6,110.4 128.8,187.2 83.2,165.6 128.8,187.2 174.4,207.6 		"/>
		
			<radialGradient id="SVGID_00000063603176458766188950000008172049887858069916_" cx="3990.6321" cy="-6703.4438" r="32.8318" gradientTransform="matrix(1.5659 0 0 -2.6088 -6119.2168 -17300.5547)" gradientUnits="userSpaceOnUse">
			<stop  offset="0" style="stop-color:#230000"/>
			<stop  offset="0.73" style="stop-color:#93432A"/>
			<stop  offset="1" style="stop-color:#230000"/>
		</radialGradient>
		
			<ellipse style="opacity:0.15;fill:url(#SVGID_00000063603176458766188950000008172049887858069916_);enable-background:new    ;" cx="128.8" cy="187.2" rx="51.2" ry="85.2"/>
		
			<radialGradient id="SVGID_00000093891677012106142430000003050231547183496838_" cx="3990.5977" cy="-6703.4438" r="16.4395" gradientTransform="matrix(1.5659 0 0 -2.6088 -6119.2168 -17300.5547)" gradientUnits="userSpaceOnUse">
			<stop  offset="0.15" style="stop-color:#FFFFFF"/>
			<stop  offset="0.2114" style="stop-color:#E2D1D2"/>
			<stop  offset="0.2918" style="stop-color:#BF9A9C"/>
			<stop  offset="0.3613" style="stop-color:#A67276"/>
			<stop  offset="0.4163" style="stop-color:#975A5E"/>
			<stop  offset="0.45" style="stop-color:#915155"/>
			<stop  offset="0.5553" style="stop-color:#6C3638"/>
			<stop  offset="0.6842" style="stop-color:#44191A"/>
			<stop  offset="0.787" style="stop-color:#2C0707"/>
			<stop  offset="0.85" style="stop-color:#230000"/>
			<stop  offset="0.8572" style="stop-color:#270201"/>
			<stop  offset="0.8647" style="stop-color:#340805"/>
			<stop  offset="0.8723" style="stop-color:#48120B"/>
			<stop  offset="0.88" style="stop-color:#652114"/>
			<stop  offset="0.8878" style="stop-color:#8B331F"/>
			<stop  offset="0.8955" style="stop-color:#B8492D"/>
			<stop  offset="0.9" style="stop-color:#D65836"/>
			<stop  offset="0.903" style="stop-color:#C95232"/>
			<stop  offset="0.9146" style="stop-color:#9D3C25"/>
			<stop  offset="0.9267" style="stop-color:#782A1A"/>
			<stop  offset="0.9392" style="stop-color:#591B10"/>
			<stop  offset="0.9523" style="stop-color:#410F09"/>
			<stop  offset="0.9661" style="stop-color:#300604"/>
			<stop  offset="0.9812" style="stop-color:#260201"/>
			<stop  offset="1" style="stop-color:#230000"/>
		</radialGradient>
		
			<ellipse style="opacity:0.5;fill:url(#SVGID_00000093891677012106142430000003050231547183496838_);enable-background:new    ;" cx="128.8" cy="187.2" rx="25.6" ry="43.2"/>
		
			<radialGradient id="SVGID_00000120540737408044242680000010961620245047137696_" cx="3990.6321" cy="-6703.4438" r="13.6829" gradientTransform="matrix(1.5659 0 0 -2.6088 -6119.2168 -17300.5547)" gradientUnits="userSpaceOnUse">
			<stop  offset="0.15" style="stop-color:#FFFFFF"/>
			<stop  offset="0.2824" style="stop-color:#C2C2C2"/>
			<stop  offset="0.4253" style="stop-color:#888888"/>
			<stop  offset="0.5636" style="stop-color:#575757"/>
			<stop  offset="0.6936" style="stop-color:#313131"/>
			<stop  offset="0.8134" style="stop-color:#161616"/>
			<stop  offset="0.9192" style="stop-color:#060606"/>
			<stop  offset="1" style="stop-color:#000000"/>
		</radialGradient>
		
			<ellipse style="fill:url(#SVGID_00000120540737408044242680000010961620245047137696_);" cx="128.8" cy="187.2" rx="21.6" ry="36"/>
		
			<polyline style="opacity:0.03;fill:none;stroke:#FFFFFF;stroke-width:2;stroke-miterlimit:10;enable-background:new    ;" points="
			128.8,187.2 60,211.2 128.8,187.2 197.6,163.2 128.8,187.2 114.4,73.2 128.8,187.2 143.2,301.2 128.8,187.2 73.6,322.8 
			128.8,187.2 184,51.6 128.8,187.2 47.2,94.8 128.8,187.2 210.4,279.6 128.8,187.2 54.4,354 128.8,187.2 203.2,20.4 128.8,187.2 
			28,63.6 128.8,187.2 228.8,310.8 128.8,187.2 105.6,264 128.8,187.2 152,111.6 128.8,187.2 83.2,147.6 128.8,187.2 174.4,225.6 
			128.8,187.2 76.8,175.2 128.8,187.2 180.8,199.2 128.8,187.2 136,99.6 128.8,187.2 121.6,274.8 128.8,187.2 14.4,242.4 
			128.8,187.2 243.2,132 128.8,187.2 96,-3.6 128.8,187.2 161.6,378 128.8,187.2 41.6,225.6 128.8,187.2 216,148.8 128.8,187.2 
			105.6,42 128.8,187.2 152,332.4 128.8,187.2 37.6,295.2 128.8,187.2 220,79.2 128.8,187.2 64,34.8 128.8,187.2 193.6,339.6 
			128.8,187.2 32.8,298.8 128.8,187.2 224.8,75.6 128.8,187.2 61.6,27.6 128.8,187.2 196,346.8 128.8,187.2 127.2,187.2 
			128.8,187.2 130.4,187.2 128.8,187.2 128.8,183.6 128.8,187.2 128.8,189.6 128.8,187.2 61.6,280.8 128.8,187.2 196,93.6 
			128.8,187.2 72.8,75.6 128.8,187.2 184.8,298.8 128.8,187.2 128.8,189.6 128.8,187.2 128.8,184.8 128.8,187.2 127.2,186 
			128.8,187.2 130.4,188.4 128.8,187.2 106.4,344.4 128.8,187.2 151.2,30 128.8,187.2 34.4,150 128.8,187.2 223.2,224.4 
			128.8,187.2 113.6,228 128.8,187.2 144,146.4 128.8,187.2 104,162 128.8,187.2 153.6,212.4 128.8,187.2 116,264 128.8,187.2 
			141.6,110.4 128.8,187.2 83.2,165.6 128.8,187.2 174.4,207.6 		"/>
	</g>
	<g>
		<rect y="396" style="fill:#DB97B0;stroke:#010101;stroke-miterlimit:10;" width="800" height="132"/>
		<line style="fill:none;stroke:#010101;stroke-miterlimit:10;" x1="0" y1="506.4" x2="800" y2="506.4"/>
		<line style="fill:none;stroke:#010101;stroke-miterlimit:10;" x1="0" y1="483.6" x2="800" y2="483.6"/>
		<line style="fill:none;stroke:#010101;stroke-miterlimit:10;" x1="0" y1="462" x2="800" y2="462"/>
		<line style="fill:none;stroke:#010101;stroke-miterlimit:10;" x1="0" y1="440.4" x2="800" y2="440.4"/>
		<line style="fill:none;stroke:#010101;stroke-miterlimit:10;" x1="0" y1="417.6" x2="800" y2="417.6"/>
		<line style="fill:none;stroke:#010101;stroke-miterlimit:10;" x1="666.4" y1="396" x2="666.4" y2="528"/>
		<line style="fill:none;stroke:#010101;stroke-miterlimit:10;" x1="533.6" y1="396" x2="533.6" y2="528"/>
		<line style="fill:none;stroke:#010101;stroke-miterlimit:10;" x1="400" y1="396" x2="400" y2="528"/>
		<line style="fill:none;stroke:#010101;stroke-miterlimit:10;" x1="266.4" y1="396" x2="266.4" y2="528"/>
		<line style="fill:none;stroke:#010101;stroke-miterlimit:10;" x1="133.6" y1="396" x2="133.6" y2="528"/>
	</g>
	<polygon style="fill:#CCD6ED;stroke:#010101;stroke-miterlimit:10;" points="72,274.8 17.6,396 114.4,396 	"/>
	<polygon style="fill:#285999;stroke:#010101;stroke-miterlimit:10;" points="240.8,396 354.4,396 297.6,145.2 	"/>
	<polyline style="fill:#497CA0;stroke:#010101;stroke-miterlimit:10;" points="654.4,396 756.8,189.6 795.2,396 655.2,396 	"/>
</g>
<g>
	
		<radialGradient id="SVGID_00000098211929103991575900000000571677118527784345_" cx="4278.5977" cy="7117.1572" r="40.3147" gradientTransform="matrix(1.5659 0 0 2.6088 -6119.2168 -18267.75)" gradientUnits="userSpaceOnUse">
		<stop  offset="0.1" style="stop-color:#000000"/>
		<stop  offset="0.1478" style="stop-color:#191407"/>
		<stop  offset="0.2051" style="stop-color:#2F260D"/>
		<stop  offset="0.2728" style="stop-color:#403312"/>
		<stop  offset="0.3565" style="stop-color:#4B3D16"/>
		<stop  offset="0.474" style="stop-color:#524217"/>
		<stop  offset="0.8" style="stop-color:#544418"/>
		<stop  offset="1" style="stop-color:#000000"/>
	</radialGradient>
	
		<ellipse style="opacity:0.25;fill:url(#SVGID_00000098211929103991575900000000571677118527784345_);enable-background:new    ;" cx="580" cy="300" rx="63.2" ry="105.6"/>
	
		<radialGradient id="SVGID_00000088829645454472269760000006295519586887072425_" cx="4369.5879" cy="7045.082" r="1.3454" gradientTransform="matrix(1.5659 0 0 2.6088 -6119.2168 -18267.75)" gradientUnits="userSpaceOnUse">
		<stop  offset="0" style="stop-color:#CAE095"/>
		<stop  offset="0.0582" style="stop-color:#A8BA7C"/>
		<stop  offset="0.1353" style="stop-color:#818F5F"/>
		<stop  offset="0.2184" style="stop-color:#5E6845"/>
		<stop  offset="0.3066" style="stop-color:#414830"/>
		<stop  offset="0.4013" style="stop-color:#292E1E"/>
		<stop  offset="0.5049" style="stop-color:#171911"/>
		<stop  offset="0.622" style="stop-color:#0A0B07"/>
		<stop  offset="0.764" style="stop-color:#020302"/>
		<stop  offset="1" style="stop-color:#000000"/>
	</radialGradient>
	
		<ellipse style="fill:url(#SVGID_00000088829645454472269760000006295519586887072425_);" cx="722.4" cy="111.6" rx="2.4" ry="3.6"/>
	
		<radialGradient id="SVGID_00000137118715894744471700000010879604659410577302_" cx="4374.8477" cy="7040.9155" r="1.3454" gradientTransform="matrix(1.5659 0 0 2.6088 -6119.2168 -18267.75)" gradientUnits="userSpaceOnUse">
		<stop  offset="0" style="stop-color:#CAE095"/>
		<stop  offset="0.0582" style="stop-color:#A8BA7C"/>
		<stop  offset="0.1353" style="stop-color:#818F5F"/>
		<stop  offset="0.2184" style="stop-color:#5E6845"/>
		<stop  offset="0.3066" style="stop-color:#414830"/>
		<stop  offset="0.4013" style="stop-color:#292E1E"/>
		<stop  offset="0.5049" style="stop-color:#171911"/>
		<stop  offset="0.622" style="stop-color:#0A0B07"/>
		<stop  offset="0.764" style="stop-color:#020302"/>
		<stop  offset="1" style="stop-color:#000000"/>
	</radialGradient>
	
		<ellipse style="fill:url(#SVGID_00000137118715894744471700000010879604659410577302_);" cx="730.4" cy="100.8" rx="2.4" ry="3.6"/>
	
		<radialGradient id="SVGID_00000090983027253474990760000001992409515690558592_" cx="4370.9976" cy="7043.957" r="10.0861" gradientTransform="matrix(1.5659 0 0 2.6088 -6119.2168 -18267.75)" gradientUnits="userSpaceOnUse">
		<stop  offset="0.05" style="stop-color:#000000"/>
		<stop  offset="0.0884" style="stop-color:#030904"/>
		<stop  offset="0.2952" style="stop-color:#133315"/>
		<stop  offset="0.4817" style="stop-color:#1F5222"/>
		<stop  offset="0.6396" style="stop-color:#256529"/>
		<stop  offset="0.75" style="stop-color:#286C2C"/>
		<stop  offset="0.7903" style="stop-color:#4C6C19"/>
		<stop  offset="0.8355" style="stop-color:#6E6B07"/>
		<stop  offset="0.86" style="stop-color:#7B6B00"/>
		<stop  offset="0.8879" style="stop-color:#776800"/>
		<stop  offset="0.9129" style="stop-color:#6D5E00"/>
		<stop  offset="0.9366" style="stop-color:#5A4F00"/>
		<stop  offset="0.9597" style="stop-color:#413800"/>
		<stop  offset="0.9821" style="stop-color:#201C00"/>
		<stop  offset="1" style="stop-color:#000000"/>
	</radialGradient>
	
		<ellipse style="opacity:0.2;fill:url(#SVGID_00000090983027253474990760000001992409515690558592_);enable-background:new    ;" cx="724" cy="108" rx="16" ry="26.4"/>
	<line style="fill:none;" x1="609.6" y1="260.4" x2="730.4" y2="100.8"/>
	
		<radialGradient id="SVGID_00000099648662886175361810000016845933804284291242_" cx="4297.8975" cy="7101.957" r="26.9101" gradientTransform="matrix(1.5659 0 0 2.6088 -6119.2168 -18267.75)" gradientUnits="userSpaceOnUse">
		<stop  offset="0" style="stop-color:#230000"/>
		<stop  offset="0.73" style="stop-color:#93432A"/>
		<stop  offset="1" style="stop-color:#230000"/>
	</radialGradient>
	
		<ellipse style="opacity:0.15;fill:url(#SVGID_00000099648662886175361810000016845933804284291242_);enable-background:new    ;" cx="609.6" cy="260.4" rx="42.4" ry="69.6"/>
	
		<radialGradient id="SVGID_00000028284001908045124970000007165825788879548291_" cx="4297.8477" cy="7101.9155" r="13.4536" gradientTransform="matrix(1.5659 0 0 2.6088 -6119.2168 -18267.75)" gradientUnits="userSpaceOnUse">
		<stop  offset="0.15" style="stop-color:#FFFFFF"/>
		<stop  offset="0.2114" style="stop-color:#E2D1D2"/>
		<stop  offset="0.2918" style="stop-color:#BF9A9C"/>
		<stop  offset="0.3613" style="stop-color:#A67276"/>
		<stop  offset="0.4163" style="stop-color:#975A5E"/>
		<stop  offset="0.45" style="stop-color:#915155"/>
		<stop  offset="0.5553" style="stop-color:#6C3638"/>
		<stop  offset="0.6842" style="stop-color:#44191A"/>
		<stop  offset="0.787" style="stop-color:#2C0707"/>
		<stop  offset="0.85" style="stop-color:#230000"/>
		<stop  offset="0.8572" style="stop-color:#270201"/>
		<stop  offset="0.8647" style="stop-color:#340805"/>
		<stop  offset="0.8723" style="stop-color:#48120B"/>
		<stop  offset="0.88" style="stop-color:#652114"/>
		<stop  offset="0.8878" style="stop-color:#8B331F"/>
		<stop  offset="0.8955" style="stop-color:#B8492D"/>
		<stop  offset="0.9" style="stop-color:#D65836"/>
		<stop  offset="0.903" style="stop-color:#C95232"/>
		<stop  offset="0.9146" style="stop-color:#9D3C25"/>
		<stop  offset="0.9267" style="stop-color:#782A1A"/>
		<stop  offset="0.9392" style="stop-color:#591B10"/>
		<stop  offset="0.9523" style="stop-color:#410F09"/>
		<stop  offset="0.9661" style="stop-color:#300604"/>
		<stop  offset="0.9812" style="stop-color:#260201"/>
		<stop  offset="1" style="stop-color:#230000"/>
	</radialGradient>
	
		<ellipse style="opacity:0.5;fill:url(#SVGID_00000028284001908045124970000007165825788879548291_);enable-background:new    ;" cx="609.6" cy="260.4" rx="20.8" ry="34.8"/>
	
		<radialGradient id="SVGID_00000058570960662578007310000011949794554130563212_" cx="4297.8477" cy="7101.9155" r="11.2042" gradientTransform="matrix(1.5659 0 0 2.6088 -6119.2168 -18267.75)" gradientUnits="userSpaceOnUse">
		<stop  offset="0.15" style="stop-color:#FFFFFF"/>
		<stop  offset="0.2824" style="stop-color:#C2C2C2"/>
		<stop  offset="0.4253" style="stop-color:#888888"/>
		<stop  offset="0.5636" style="stop-color:#575757"/>
		<stop  offset="0.6936" style="stop-color:#313131"/>
		<stop  offset="0.8134" style="stop-color:#161616"/>
		<stop  offset="0.9192" style="stop-color:#060606"/>
		<stop  offset="1" style="stop-color:#000000"/>
	</radialGradient>
	
		<ellipse style="fill:url(#SVGID_00000058570960662578007310000011949794554130563212_);" cx="609.6" cy="260.4" rx="17.6" ry="28.8"/>
	<polyline style="opacity:0.03;fill:none;stroke:#FFFFFF;stroke-width:2;stroke-miterlimit:10;enable-background:new    ;" points="
		609.6,260.4 650.4,184.8 609.6,260.4 569.6,334.8 609.6,260.4 655.2,327.6 609.6,260.4 564.8,192 609.6,260.4 612.8,255.6 
		609.6,260.4 607.2,264 609.6,260.4 612.8,264 609.6,260.4 607.2,255.6 609.6,260.4 663.2,271.2 609.6,260.4 556.8,248.4 
		609.6,260.4 603.2,348 609.6,260.4 616.8,170.4 609.6,260.4 661.6,249.6 609.6,260.4 557.6,270 609.6,260.4 616,346.8 609.6,260.4 
		604,172.8 609.6,260.4 652.8,249.6 609.6,260.4 567.2,270 609.6,260.4 616,331.2 609.6,260.4 604,188.4 609.6,260.4 652,300 
		609.6,260.4 568,219.6 609.6,260.4 585.6,330 609.6,260.4 634.4,189.6 609.6,260.4 676,208.8 609.6,260.4 544,310.8 609.6,260.4 
		640.8,369.6 609.6,260.4 579.2,150 609.6,260.4 710.4,247.2 609.6,260.4 508.8,272.4 609.6,260.4 617.6,428.4 609.6,260.4 
		602.4,91.2 609.6,260.4 674.4,132 609.6,260.4 545.6,387.6 609.6,260.4 686.4,367.2 609.6,260.4 533.6,152.4 609.6,260.4 
		648,268.8 609.6,260.4 572,250.8 609.6,260.4 604,322.8 609.6,260.4 615.2,195.6 609.6,260.4 695.2,198 609.6,260.4 524.8,320.4 
		609.6,260.4 646.4,402 609.6,260.4 572.8,117.6 609.6,260.4 681.6,314.4 609.6,260.4 538.4,205.2 609.6,260.4 576.8,379.2 
		609.6,260.4 642.4,140.4 609.6,260.4 668.8,181.2 609.6,260.4 551.2,338.4 609.6,260.4 656.8,357.6 609.6,260.4 562.4,162 
		609.6,260.4 676.8,160.8 609.6,260.4 543.2,358.8 609.6,260.4 669.6,370.8 609.6,260.4 550.4,148.8 609.6,260.4 637.6,200.4 
		609.6,260.4 581.6,319.2 609.6,260.4 645.6,306 609.6,260.4 573.6,213.6 	"/>
	
		<radialGradient id="SVGID_00000163758581837202093160000015915096933370687118_" cx="4374.8477" cy="7040.9155" r="20.1804" gradientTransform="matrix(1.5659 0 0 2.6088 -6119.2168 -18267.75)" gradientUnits="userSpaceOnUse">
		<stop  offset="0.64" style="stop-color:#000000"/>
		<stop  offset="0.7175" style="stop-color:#000200"/>
		<stop  offset="0.7455" style="stop-color:#000902"/>
		<stop  offset="0.7654" style="stop-color:#001405"/>
		<stop  offset="0.7814" style="stop-color:#002509"/>
		<stop  offset="0.7951" style="stop-color:#003B0E"/>
		<stop  offset="0.8" style="stop-color:#004510"/>
		<stop  offset="0.8154" style="stop-color:#182809"/>
		<stop  offset="0.8312" style="stop-color:#2B1204"/>
		<stop  offset="0.8464" style="stop-color:#360501"/>
		<stop  offset="0.86" style="stop-color:#3A0000"/>
		<stop  offset="0.8719" style="stop-color:#250000"/>
		<stop  offset="0.8864" style="stop-color:#140000"/>
		<stop  offset="0.9045" style="stop-color:#090000"/>
		<stop  offset="0.9298" style="stop-color:#020000"/>
		<stop  offset="1" style="stop-color:#000000"/>
	</radialGradient>
	
		<ellipse style="opacity:0.5;fill:url(#SVGID_00000163758581837202093160000015915096933370687118_);enable-background:new    ;" cx="730.4" cy="100.8" rx="32" ry="52.8"/>
	
		<radialGradient id="SVGID_00000065771173448643249610000008413225852798871474_" cx="4353.6978" cy="7057.6699" r="5.0803" gradientTransform="matrix(1.5659 0 0 2.6088 -6119.2168 -18267.75)" gradientUnits="userSpaceOnUse">
		<stop  offset="0.1" style="stop-color:#000000"/>
		<stop  offset="0.1744" style="stop-color:#1A191B"/>
		<stop  offset="0.3047" style="stop-color:#424045"/>
		<stop  offset="0.4378" style="stop-color:#636067"/>
		<stop  offset="0.5726" style="stop-color:#7C7882"/>
		<stop  offset="0.7096" style="stop-color:#8F8A95"/>
		<stop  offset="0.8502" style="stop-color:#9995A0"/>
		<stop  offset="1" style="stop-color:#9D98A4"/>
	</radialGradient>
	<ellipse style="fill:url(#SVGID_00000065771173448643249610000008413225852798871474_);" cx="697.6" cy="144" rx="8" ry="13.2"/>
	
		<radialGradient id="SVGID_00000073713790359457460940000018278725652997467039_" cx="4328.7676" cy="7076.8745" r="0" gradientTransform="matrix(1.5659 0 0 2.6088 -6119.2168 -18267.75)" gradientUnits="userSpaceOnUse">
		<stop  offset="0.1" style="stop-color:#250000"/>
		<stop  offset="0.1359" style="stop-color:#220000"/>
		<stop  offset="0.4122" style="stop-color:#0F0000"/>
		<stop  offset="0.6968" style="stop-color:#040000"/>
		<stop  offset="1" style="stop-color:#000000"/>
	</radialGradient>
	<path style="fill:url(#SVGID_00000073713790359457460940000018278725652997467039_);" d="M659.2,194.4L659.2,194.4L659.2,194.4z"/>
	
		<radialGradient id="SVGID_00000081633981472244632370000011594371714990707377_" cx="4343.6113" cy="7065.6611" r="1.5906" gradientTransform="matrix(1.5659 0 0 2.6088 -6119.2168 -18267.75)" gradientUnits="userSpaceOnUse">
		<stop  offset="0.1" style="stop-color:#000000"/>
		<stop  offset="0.1041" style="stop-color:#000101"/>
		<stop  offset="0.318" style="stop-color:#00181B"/>
		<stop  offset="0.5361" style="stop-color:#00292E"/>
		<stop  offset="0.7607" style="stop-color:#003339"/>
		<stop  offset="1" style="stop-color:#00363D"/>
	</radialGradient>
	
		<ellipse style="fill:url(#SVGID_00000081633981472244632370000011594371714990707377_);" cx="681.6" cy="165.6" rx="2.4" ry="3.6"/>
	
		<radialGradient id="SVGID_00000171712493858191946060000011702667688730807463_" cx="4330.9976" cy="7075.6572" r="5.7855" gradientTransform="matrix(1.5659 0 0 2.6088 -6119.2168 -18267.75)" gradientUnits="userSpaceOnUse">
		<stop  offset="0.1" style="stop-color:#2B3C5B"/>
		<stop  offset="0.2582" style="stop-color:#1D283D"/>
		<stop  offset="0.4352" style="stop-color:#101622"/>
		<stop  offset="0.6162" style="stop-color:#070A0F"/>
		<stop  offset="0.8021" style="stop-color:#020204"/>
		<stop  offset="1" style="stop-color:#000000"/>
	</radialGradient>
	
		<ellipse style="fill:url(#SVGID_00000171712493858191946060000011702667688730807463_);" cx="661.6" cy="190.8" rx="8.8" ry="15.6"/>
	
		<radialGradient id="SVGID_00000147943103942115167930000014488286109766085264_" cx="4296.1689" cy="7103.2451" r="0.9396" gradientTransform="matrix(1.5659 0 0 2.6088 -6119.2168 -18267.75)" gradientUnits="userSpaceOnUse">
		<stop  offset="0.1" style="stop-color:#000000"/>
		<stop  offset="0.1744" style="stop-color:#1A191B"/>
		<stop  offset="0.3047" style="stop-color:#424045"/>
		<stop  offset="0.4378" style="stop-color:#636067"/>
		<stop  offset="0.5726" style="stop-color:#7C7882"/>
		<stop  offset="0.7096" style="stop-color:#8F8A95"/>
		<stop  offset="0.8502" style="stop-color:#9995A0"/>
		<stop  offset="1" style="stop-color:#9D98A4"/>
	</radialGradient>
	
		<ellipse style="fill:url(#SVGID_00000147943103942115167930000014488286109766085264_);" cx="607.2" cy="262.8" rx="1.6" ry="2.4"/>
</g>
<g>
	
		<radialGradient id="SVGID_00000014594948468044503750000012441752665263173762_" cx="4157.8477" cy="7088.1572" r="17.4776" gradientTransform="matrix(1.5659 0 0 2.6088 -6119.2168 -18267.75)" gradientUnits="userSpaceOnUse">
		<stop  offset="0.1" style="stop-color:#000000"/>
		<stop  offset="0.1478" style="stop-color:#191407"/>
		<stop  offset="0.2051" style="stop-color:#2F260D"/>
		<stop  offset="0.2728" style="stop-color:#403312"/>
		<stop  offset="0.3565" style="stop-color:#4B3D16"/>
		<stop  offset="0.474" style="stop-color:#524217"/>
		<stop  offset="0.8" style="stop-color:#544418"/>
		<stop  offset="1" style="stop-color:#000000"/>
	</radialGradient>
	
		<ellipse style="opacity:0.25;fill:url(#SVGID_00000014594948468044503750000012441752665263173762_);enable-background:new    ;" cx="390.4" cy="224.4" rx="27.2" ry="45.6"/>
	
		<radialGradient id="SVGID_00000098906524721427564210000012613684052218569620_" cx="4210.6064" cy="7087.0664" r="0.5831" gradientTransform="matrix(1.5659 0 0 2.6088 -6119.2168 -18267.75)" gradientUnits="userSpaceOnUse">
		<stop  offset="0" style="stop-color:#CAE095"/>
		<stop  offset="0.0582" style="stop-color:#A8BA7C"/>
		<stop  offset="0.1353" style="stop-color:#818F5F"/>
		<stop  offset="0.2184" style="stop-color:#5E6845"/>
		<stop  offset="0.3066" style="stop-color:#414830"/>
		<stop  offset="0.4013" style="stop-color:#292E1E"/>
		<stop  offset="0.5049" style="stop-color:#171911"/>
		<stop  offset="0.622" style="stop-color:#0A0B07"/>
		<stop  offset="0.764" style="stop-color:#020302"/>
		<stop  offset="1" style="stop-color:#000000"/>
	</radialGradient>
	
		<ellipse style="fill:url(#SVGID_00000098906524721427564210000012613684052218569620_);" cx="473.6" cy="220.8" rx="0.8" ry="1.2"/>
	
		<radialGradient id="SVGID_00000025402506214142950080000001934440000189013888_" cx="4217.8477" cy="7086.9155" r="0.5831" gradientTransform="matrix(1.5659 0 0 2.6088 -6119.2168 -18267.75)" gradientUnits="userSpaceOnUse">
		<stop  offset="0" style="stop-color:#CAE095"/>
		<stop  offset="0.0582" style="stop-color:#A8BA7C"/>
		<stop  offset="0.1353" style="stop-color:#818F5F"/>
		<stop  offset="0.2184" style="stop-color:#5E6845"/>
		<stop  offset="0.3066" style="stop-color:#414830"/>
		<stop  offset="0.4013" style="stop-color:#292E1E"/>
		<stop  offset="0.5049" style="stop-color:#171911"/>
		<stop  offset="0.622" style="stop-color:#0A0B07"/>
		<stop  offset="0.764" style="stop-color:#020302"/>
		<stop  offset="1" style="stop-color:#000000"/>
	</radialGradient>
	
		<ellipse style="fill:url(#SVGID_00000025402506214142950080000001934440000189013888_);" cx="484.8" cy="220.8" rx="0.8" ry="1.2"/>
	
		<radialGradient id="SVGID_00000035489295206185300240000016633534509764516531_" cx="4215.4478" cy="7086.957" r="4.369" gradientTransform="matrix(1.5659 0 0 2.6088 -6119.2168 -18267.75)" gradientUnits="userSpaceOnUse">
		<stop  offset="0.05" style="stop-color:#000000"/>
		<stop  offset="0.0884" style="stop-color:#030904"/>
		<stop  offset="0.2952" style="stop-color:#133315"/>
		<stop  offset="0.4817" style="stop-color:#1F5222"/>
		<stop  offset="0.6396" style="stop-color:#256529"/>
		<stop  offset="0.75" style="stop-color:#286C2C"/>
		<stop  offset="0.7903" style="stop-color:#4C6C19"/>
		<stop  offset="0.8355" style="stop-color:#6E6B07"/>
		<stop  offset="0.86" style="stop-color:#7B6B00"/>
		<stop  offset="0.8879" style="stop-color:#776800"/>
		<stop  offset="0.9129" style="stop-color:#6D5E00"/>
		<stop  offset="0.9366" style="stop-color:#5A4F00"/>
		<stop  offset="0.9597" style="stop-color:#413800"/>
		<stop  offset="0.9821" style="stop-color:#201C00"/>
		<stop  offset="1" style="stop-color:#000000"/>
	</radialGradient>
	
		<ellipse style="opacity:0.2;fill:url(#SVGID_00000035489295206185300240000016633534509764516531_);enable-background:new    ;" cx="480.8" cy="220.8" rx="7.2" ry="12"/>
	<line style="fill:none;" x1="409.6" y1="223.2" x2="484.8" y2="220.8"/>
	
		<radialGradient id="SVGID_00000003793953596735526790000015909688012211908794_" cx="4169.8477" cy="7087.9141" r="11.657" gradientTransform="matrix(1.5659 0 0 2.6088 -6119.2168 -18267.75)" gradientUnits="userSpaceOnUse">
		<stop  offset="0" style="stop-color:#230000"/>
		<stop  offset="0.73" style="stop-color:#93432A"/>
		<stop  offset="1" style="stop-color:#230000"/>
	</radialGradient>
	
		<ellipse style="opacity:0.15;fill:url(#SVGID_00000003793953596735526790000015909688012211908794_);enable-background:new    ;" cx="409.6" cy="223.2" rx="18.4" ry="30"/>
	
		<radialGradient id="SVGID_00000026842617435133906150000004710204313615497912_" cx="4169.8477" cy="7087.9141" r="5.826" gradientTransform="matrix(1.5659 0 0 2.6088 -6119.2168 -18267.75)" gradientUnits="userSpaceOnUse">
		<stop  offset="0.15" style="stop-color:#FFFFFF"/>
		<stop  offset="0.2114" style="stop-color:#E2D1D2"/>
		<stop  offset="0.2918" style="stop-color:#BF9A9C"/>
		<stop  offset="0.3613" style="stop-color:#A67276"/>
		<stop  offset="0.4163" style="stop-color:#975A5E"/>
		<stop  offset="0.45" style="stop-color:#915155"/>
		<stop  offset="0.5553" style="stop-color:#6C3638"/>
		<stop  offset="0.6842" style="stop-color:#44191A"/>
		<stop  offset="0.787" style="stop-color:#2C0707"/>
		<stop  offset="0.85" style="stop-color:#230000"/>
		<stop  offset="0.8572" style="stop-color:#270201"/>
		<stop  offset="0.8647" style="stop-color:#340805"/>
		<stop  offset="0.8723" style="stop-color:#48120B"/>
		<stop  offset="0.88" style="stop-color:#652114"/>
		<stop  offset="0.8878" style="stop-color:#8B331F"/>
		<stop  offset="0.8955" style="stop-color:#B8492D"/>
		<stop  offset="0.9" style="stop-color:#D65836"/>
		<stop  offset="0.903" style="stop-color:#C95232"/>
		<stop  offset="0.9146" style="stop-color:#9D3C25"/>
		<stop  offset="0.9267" style="stop-color:#782A1A"/>
		<stop  offset="0.9392" style="stop-color:#591B10"/>
		<stop  offset="0.9523" style="stop-color:#410F09"/>
		<stop  offset="0.9661" style="stop-color:#300604"/>
		<stop  offset="0.9812" style="stop-color:#260201"/>
		<stop  offset="1" style="stop-color:#230000"/>
	</radialGradient>
	
		<ellipse style="opacity:0.5;fill:url(#SVGID_00000026842617435133906150000004710204313615497912_);enable-background:new    ;" cx="409.6" cy="223.2" rx="8.8" ry="15.6"/>
	
		<radialGradient id="SVGID_00000001652167445737354660000010434117110253288365_" cx="4169.8477" cy="7087.9141" r="4.8505" gradientTransform="matrix(1.5659 0 0 2.6088 -6119.2168 -18267.75)" gradientUnits="userSpaceOnUse">
		<stop  offset="0.15" style="stop-color:#FFFFFF"/>
		<stop  offset="0.2824" style="stop-color:#C2C2C2"/>
		<stop  offset="0.4253" style="stop-color:#888888"/>
		<stop  offset="0.5636" style="stop-color:#575757"/>
		<stop  offset="0.6936" style="stop-color:#313131"/>
		<stop  offset="0.8134" style="stop-color:#161616"/>
		<stop  offset="0.9192" style="stop-color:#060606"/>
		<stop  offset="1" style="stop-color:#000000"/>
	</radialGradient>
	<ellipse style="fill:url(#SVGID_00000001652167445737354660000010434117110253288365_);" cx="409.6" cy="223.2" rx="8" ry="13.2"/>
	<polyline style="opacity:0.03;fill:none;stroke:#FFFFFF;stroke-width:2;stroke-miterlimit:10;enable-background:new    ;" points="
		409.6,223.2 414.4,238.8 409.6,223.2 404,207.6 409.6,223.2 400,231.6 409.6,223.2 418.4,214.8 409.6,223.2 424.8,256.8 
		409.6,223.2 393.6,189.6 409.6,223.2 389.6,249.6 409.6,223.2 429.6,196.8 409.6,223.2 410.4,224.4 409.6,223.2 408,222 
		409.6,223.2 408.8,225.6 409.6,223.2 410.4,220.8 409.6,223.2 425.6,249.6 409.6,223.2 392.8,196.8 409.6,223.2 393.6,250.8 
		409.6,223.2 425.6,195.6 409.6,223.2 421.6,241.2 409.6,223.2 397.6,205.2 409.6,223.2 399.2,243.6 409.6,223.2 420,202.8 
		409.6,223.2 445.6,267.6 409.6,223.2 373.6,178.8 409.6,223.2 383.2,283.2 409.6,223.2 436,163.2 409.6,223.2 415.2,277.2 
		409.6,223.2 404,169.2 409.6,223.2 376.8,232.8 409.6,223.2 442.4,213.6 409.6,223.2 413.6,260.4 409.6,223.2 404.8,186 
		409.6,223.2 387.2,230.4 409.6,223.2 432,216 409.6,223.2 439.2,270 409.6,223.2 379.2,176.4 409.6,223.2 381.6,273.6 409.6,223.2 
		436.8,172.8 409.6,223.2 400,252 409.6,223.2 418.4,194.4 409.6,223.2 392,207.6 409.6,223.2 426.4,238.8 409.6,223.2 410.4,265.2 
		409.6,223.2 408.8,181.2 409.6,223.2 384,224.4 409.6,223.2 434.4,222 409.6,223.2 432.8,276 409.6,223.2 386.4,170.4 409.6,223.2 
		377.6,261.6 409.6,223.2 441.6,184.8 409.6,223.2 411.2,228 409.6,223.2 407.2,218.4 409.6,223.2 406.4,225.6 409.6,223.2 
		412,219.6 409.6,223.2 416.8,268.8 409.6,223.2 402.4,177.6 409.6,223.2 381.6,235.2 409.6,223.2 436.8,211.2 409.6,223.2 
		402.4,268.8 409.6,223.2 416,177.6 409.6,223.2 382.4,212.4 409.6,223.2 436.8,234 	"/>
	
		<radialGradient id="SVGID_00000067918420849581415710000005893974273821960080_" cx="4217.8477" cy="7086.9155" r="8.7464" gradientTransform="matrix(1.5659 0 0 2.6088 -6119.2168 -18267.75)" gradientUnits="userSpaceOnUse">
		<stop  offset="0.64" style="stop-color:#000000"/>
		<stop  offset="0.7175" style="stop-color:#000200"/>
		<stop  offset="0.7455" style="stop-color:#000902"/>
		<stop  offset="0.7654" style="stop-color:#001405"/>
		<stop  offset="0.7814" style="stop-color:#002509"/>
		<stop  offset="0.7951" style="stop-color:#003B0E"/>
		<stop  offset="0.8" style="stop-color:#004510"/>
		<stop  offset="0.8154" style="stop-color:#182809"/>
		<stop  offset="0.8312" style="stop-color:#2B1204"/>
		<stop  offset="0.8464" style="stop-color:#360501"/>
		<stop  offset="0.86" style="stop-color:#3A0000"/>
		<stop  offset="0.8719" style="stop-color:#250000"/>
		<stop  offset="0.8864" style="stop-color:#140000"/>
		<stop  offset="0.9045" style="stop-color:#090000"/>
		<stop  offset="0.9298" style="stop-color:#020000"/>
		<stop  offset="1" style="stop-color:#000000"/>
	</radialGradient>
	
		<ellipse style="opacity:0.5;fill:url(#SVGID_00000067918420849581415710000005893974273821960080_);enable-background:new    ;" cx="484.8" cy="220.8" rx="13.6" ry="22.8"/>
	
		<radialGradient id="SVGID_00000173868745783157016460000011762947320812553877_" cx="4178.1978" cy="7087.7417" r="2.544" gradientTransform="matrix(1.5659 0 0 2.6088 -6119.2168 -18267.75)" gradientUnits="userSpaceOnUse">
		<stop  offset="0.1" style="stop-color:#000000"/>
		<stop  offset="0.1993" style="stop-color:#261E14"/>
		<stop  offset="0.3256" style="stop-color:#503F2A"/>
		<stop  offset="0.4548" style="stop-color:#725B3C"/>
		<stop  offset="0.5855" style="stop-color:#8D704A"/>
		<stop  offset="0.7184" style="stop-color:#A07F54"/>
		<stop  offset="0.8548" style="stop-color:#AB885A"/>
		<stop  offset="1" style="stop-color:#AF8B5C"/>
	</radialGradient>
	<ellipse style="fill:url(#SVGID_00000173868745783157016460000011762947320812553877_);" cx="422.4" cy="223.2" rx="4" ry="6"/>
	
		<radialGradient id="SVGID_00000180366329121327272880000005922229872011478423_" cx="4189.0679" cy="7087.5151" r="1.6903" gradientTransform="matrix(1.5659 0 0 2.6088 -6119.2168 -18267.75)" gradientUnits="userSpaceOnUse">
		<stop  offset="0.1" style="stop-color:#5C2044"/>
		<stop  offset="0.2621" style="stop-color:#3D152D"/>
		<stop  offset="0.4381" style="stop-color:#220C19"/>
		<stop  offset="0.6182" style="stop-color:#0F050B"/>
		<stop  offset="0.8031" style="stop-color:#040103"/>
		<stop  offset="1" style="stop-color:#000000"/>
	</radialGradient>
	<ellipse style="fill:url(#SVGID_00000180366329121327272880000005922229872011478423_);" cx="439.2" cy="222" rx="2.4" ry="4.8"/>
	
		<radialGradient id="SVGID_00000049212132104413584060000008217188452399753371_" cx="4165.4854" cy="7088.0063" r="2.1962" gradientTransform="matrix(1.5659 0 0 2.6088 -6119.2168 -18267.75)" gradientUnits="userSpaceOnUse">
		<stop  offset="0.1" style="stop-color:#70516E"/>
		<stop  offset="0.1687" style="stop-color:#5F455D"/>
		<stop  offset="0.3267" style="stop-color:#3D2C3C"/>
		<stop  offset="0.488" style="stop-color:#221921"/>
		<stop  offset="0.6521" style="stop-color:#0F0B0F"/>
		<stop  offset="0.8206" style="stop-color:#040304"/>
		<stop  offset="1" style="stop-color:#000000"/>
	</radialGradient>
	<ellipse style="fill:url(#SVGID_00000049212132104413584060000008217188452399753371_);" cx="402.4" cy="223.2" rx="3.2" ry="6"/>
	
		<radialGradient id="SVGID_00000061444004455884163320000017202152409312331933_" cx="4207.9634" cy="7087.1211" r="0.6224" gradientTransform="matrix(1.5659 0 0 2.6088 -6119.2168 -18267.75)" gradientUnits="userSpaceOnUse">
		<stop  offset="0.1" style="stop-color:#5D6B7C"/>
		<stop  offset="0.2078" style="stop-color:#47525F"/>
		<stop  offset="0.3583" style="stop-color:#2E343D"/>
		<stop  offset="0.5121" style="stop-color:#1A1D22"/>
		<stop  offset="0.6685" style="stop-color:#0B0D0F"/>
		<stop  offset="0.829" style="stop-color:#030304"/>
		<stop  offset="1" style="stop-color:#000000"/>
	</radialGradient>
	
		<ellipse style="fill:url(#SVGID_00000061444004455884163320000017202152409312331933_);" cx="468.8" cy="220.8" rx="0.8" ry="1.2"/>
	
		<radialGradient id="SVGID_00000018223740295410623600000010332306967069427340_" cx="4208.333" cy="7087.1138" r="1.5185" gradientTransform="matrix(1.5659 0 0 2.6088 -6119.2168 -18267.75)" gradientUnits="userSpaceOnUse">
		<stop  offset="0.1" style="stop-color:#000000"/>
		<stop  offset="0.2109" style="stop-color:#0C1E1C"/>
		<stop  offset="0.3608" style="stop-color:#1A403B"/>
		<stop  offset="0.514" style="stop-color:#255B53"/>
		<stop  offset="0.6698" style="stop-color:#2D6E64"/>
		<stop  offset="0.8297" style="stop-color:#31796F"/>
		<stop  offset="1" style="stop-color:#337D72"/>
	</radialGradient>
	
		<ellipse style="fill:url(#SVGID_00000018223740295410623600000010332306967069427340_);" cx="469.6" cy="220.8" rx="2.4" ry="3.6"/>
</g>
</svg>
