<?xml version="1.0" encoding="utf-8"?>
<!-- Generator: Adobe Illustrator 26.5.1, SVG Export Plug-In . SVG Version: 6.00 Build 0)  -->
<svg version="1.1" id="Layer_1" xmlns="http://www.w3.org/2000/svg" xmlns:xlink="http://www.w3.org/1999/xlink" x="0px" y="0px"
	 viewBox="0 0 800 528" style="enable-background:new 0 0 800 528;" xml:space="preserve">
<g>
	<g>
		<line style="fill:none;" x1="448.8" y1="57.6" x2="444" y2="94.8"/>
		<ellipse style="fill:none;" cx="448.8" cy="57.6" rx="19.2" ry="31.2"/>
		<ellipse style="fill:none;" cx="448.8" cy="57.6" rx="22.4" ry="38.4"/>
		<polyline style="fill:none;" points="448.8,57.6 435.2,51.6 448.8,57.6 462.4,63.6 448.8,57.6 452,34.8 448.8,57.6 445.6,80.4 
			448.8,57.6 436.8,33.6 448.8,57.6 460,81.6 448.8,57.6 463.2,38.4 448.8,57.6 434.4,76.8 448.8,57.6 426.4,37.2 448.8,57.6 
			471.2,78 448.8,57.6 460.8,20.4 448.8,57.6 436.8,94.8 448.8,57.6 449.6,34.8 448.8,57.6 448.8,80.4 448.8,57.6 462.4,58.8 
			448.8,57.6 435.2,56.4 448.8,57.6 401.6,-62.4 448.8,57.6 496,177.6 448.8,57.6 520.8,-20.4 448.8,57.6 376.8,135.6 448.8,57.6 
			432.8,28.8 448.8,57.6 464.8,86.4 448.8,57.6 466.4,31.2 448.8,57.6 431.2,84 448.8,57.6 391.2,3.6 448.8,57.6 506.4,112.8 
			448.8,57.6 481.6,-38.4 448.8,57.6 416,153.6 448.8,57.6 445.6,46.8 448.8,57.6 452,68.4 448.8,57.6 455.2,52.8 448.8,57.6 
			442.4,62.4 448.8,57.6 415.2,-19.2 448.8,57.6 481.6,134.4 448.8,57.6 495.2,2.4 448.8,57.6 402.4,112.8 448.8,57.6 450.4,-38.4 
			448.8,57.6 447.2,153.6 448.8,57.6 506.4,60 448.8,57.6 391.2,55.2 448.8,57.6 417.6,25.2 448.8,57.6 479.2,90 448.8,57.6 468,6 
			448.8,57.6 429.6,109.2 448.8,57.6 384.8,12 448.8,57.6 512.8,103.2 448.8,57.6 476,-49.2 448.8,57.6 421.6,165.6 448.8,57.6 
			424.8,7.2 448.8,57.6 472.8,108 448.8,57.6 479.2,18 448.8,57.6 418.4,98.4 448.8,57.6 384,-56.4 448.8,57.6 513.6,171.6 
			448.8,57.6 517.6,-50.4 448.8,57.6 380,165.6 448.8,57.6 405.6,-72 448.8,57.6 492,187.2 448.8,57.6 526.4,-14.4 448.8,57.6 
			370.4,129.6 		"/>
		
			<radialGradient id="SVGID_1_" cx="4231.8882" cy="7365.541" r="28.9952" gradientTransform="matrix(1.5659 0 0 2.6088 -6176.9385 -19157.623)" gradientUnits="userSpaceOnUse">
			<stop  offset="0" style="stop-color:#230000"/>
			<stop  offset="0.73" style="stop-color:#93432A"/>
			<stop  offset="1" style="stop-color:#230000"/>
		</radialGradient>
		<ellipse style="opacity:0.15;fill:url(#SVGID_1_);enable-background:new    ;" cx="448.8" cy="57.6" rx="45.6" ry="75.6"/>
		
			<radialGradient id="SVGID_00000149376262955388690530000011342780532261725338_" cx="4231.8594" cy="7365.5869" r="14.5064" gradientTransform="matrix(1.5659 0 0 2.6088 -6176.9385 -19157.623)" gradientUnits="userSpaceOnUse">
			<stop  offset="0.15" style="stop-color:#FFFFFF"/>
			<stop  offset="0.2114" style="stop-color:#E2D1D2"/>
			<stop  offset="0.2918" style="stop-color:#BF9A9C"/>
			<stop  offset="0.3613" style="stop-color:#A67276"/>
			<stop  offset="0.4163" style="stop-color:#975A5E"/>
			<stop  offset="0.45" style="stop-color:#915155"/>
			<stop  offset="0.5553" style="stop-color:#6C3638"/>
			<stop  offset="0.6842" style="stop-color:#44191A"/>
			<stop  offset="0.787" style="stop-color:#2C0707"/>
			<stop  offset="0.85" style="stop-color:#230000"/>
			<stop  offset="0.8572" style="stop-color:#270201"/>
			<stop  offset="0.8647" style="stop-color:#340805"/>
			<stop  offset="0.8723" style="stop-color:#48120B"/>
			<stop  offset="0.88" style="stop-color:#652114"/>
			<stop  offset="0.8878" style="stop-color:#8B331F"/>
			<stop  offset="0.8955" style="stop-color:#B8492D"/>
			<stop  offset="0.9" style="stop-color:#D65836"/>
			<stop  offset="0.903" style="stop-color:#C95232"/>
			<stop  offset="0.9146" style="stop-color:#9D3C25"/>
			<stop  offset="0.9267" style="stop-color:#782A1A"/>
			<stop  offset="0.9392" style="stop-color:#591B10"/>
			<stop  offset="0.9523" style="stop-color:#410F09"/>
			<stop  offset="0.9661" style="stop-color:#300604"/>
			<stop  offset="0.9812" style="stop-color:#260201"/>
			<stop  offset="1" style="stop-color:#230000"/>
		</radialGradient>
		
			<ellipse style="opacity:0.5;fill:url(#SVGID_00000149376262955388690530000011342780532261725338_);enable-background:new    ;" cx="448.8" cy="57.6" rx="22.4" ry="38.4"/>
		
			<radialGradient id="SVGID_00000082332774629036341540000016089924081918727857_" cx="4231.8594" cy="7365.5869" r="12.0751" gradientTransform="matrix(1.5659 0 0 2.6088 -6176.9385 -19157.623)" gradientUnits="userSpaceOnUse">
			<stop  offset="0.15" style="stop-color:#FFFFFF"/>
			<stop  offset="0.2824" style="stop-color:#C2C2C2"/>
			<stop  offset="0.4253" style="stop-color:#888888"/>
			<stop  offset="0.5636" style="stop-color:#575757"/>
			<stop  offset="0.6936" style="stop-color:#313131"/>
			<stop  offset="0.8134" style="stop-color:#161616"/>
			<stop  offset="0.9192" style="stop-color:#060606"/>
			<stop  offset="1" style="stop-color:#000000"/>
		</radialGradient>
		
			<ellipse style="fill:url(#SVGID_00000082332774629036341540000016089924081918727857_);" cx="448.8" cy="57.6" rx="19.2" ry="31.2"/>
		
			<polyline style="opacity:0.03;fill:none;stroke:#FFFFFF;stroke-width:2;stroke-miterlimit:10;enable-background:new    ;" points="
			448.8,57.6 435.2,51.6 448.8,57.6 462.4,63.6 448.8,57.6 452,34.8 448.8,57.6 445.6,80.4 448.8,57.6 436.8,33.6 448.8,57.6 
			460,81.6 448.8,57.6 463.2,38.4 448.8,57.6 434.4,76.8 448.8,57.6 426.4,37.2 448.8,57.6 471.2,78 448.8,57.6 460.8,20.4 
			448.8,57.6 436.8,94.8 448.8,57.6 449.6,34.8 448.8,57.6 448.8,80.4 448.8,57.6 462.4,58.8 448.8,57.6 435.2,56.4 448.8,57.6 
			401.6,-62.4 448.8,57.6 496,177.6 448.8,57.6 520.8,-20.4 448.8,57.6 376.8,135.6 448.8,57.6 432.8,28.8 448.8,57.6 464.8,86.4 
			448.8,57.6 466.4,31.2 448.8,57.6 431.2,84 448.8,57.6 391.2,3.6 448.8,57.6 506.4,112.8 448.8,57.6 481.6,-38.4 448.8,57.6 
			416,153.6 448.8,57.6 445.6,46.8 448.8,57.6 452,68.4 448.8,57.6 455.2,52.8 448.8,57.6 442.4,62.4 448.8,57.6 415.2,-19.2 
			448.8,57.6 481.6,134.4 448.8,57.6 495.2,2.4 448.8,57.6 402.4,112.8 448.8,57.6 450.4,-38.4 448.8,57.6 447.2,153.6 448.8,57.6 
			506.4,60 448.8,57.6 391.2,55.2 448.8,57.6 417.6,25.2 448.8,57.6 479.2,90 448.8,57.6 468,6 448.8,57.6 429.6,109.2 448.8,57.6 
			384.8,12 448.8,57.6 512.8,103.2 448.8,57.6 476,-49.2 448.8,57.6 421.6,165.6 448.8,57.6 424.8,7.2 448.8,57.6 472.8,108 
			448.8,57.6 479.2,18 448.8,57.6 418.4,98.4 448.8,57.6 384,-56.4 448.8,57.6 513.6,171.6 448.8,57.6 517.6,-50.4 448.8,57.6 
			380,165.6 448.8,57.6 405.6,-72 448.8,57.6 492,187.2 448.8,57.6 526.4,-14.4 448.8,57.6 370.4,129.6 		"/>
	</g>
	<g>
		<line style="fill:none;" x1="128.8" y1="187.2" x2="148.8" y2="213.6"/>
		<ellipse style="fill:none;" cx="128.8" cy="187.2" rx="21.6" ry="36"/>
		<ellipse style="fill:none;" cx="128.8" cy="187.2" rx="25.6" ry="43.2"/>
		<polyline style="fill:none;" points="128.8,187.2 60,211.2 128.8,187.2 197.6,163.2 128.8,187.2 114.4,73.2 128.8,187.2 
			143.2,301.2 128.8,187.2 73.6,322.8 128.8,187.2 184,51.6 128.8,187.2 47.2,94.8 128.8,187.2 210.4,279.6 128.8,187.2 54.4,354 
			128.8,187.2 203.2,20.4 128.8,187.2 28,63.6 128.8,187.2 228.8,310.8 128.8,187.2 105.6,264 128.8,187.2 152,111.6 128.8,187.2 
			83.2,147.6 128.8,187.2 174.4,225.6 128.8,187.2 76.8,175.2 128.8,187.2 180.8,199.2 128.8,187.2 136,99.6 128.8,187.2 
			121.6,274.8 128.8,187.2 14.4,242.4 128.8,187.2 243.2,132 128.8,187.2 96,-3.6 128.8,187.2 161.6,378 128.8,187.2 41.6,225.6 
			128.8,187.2 215.2,148.8 128.8,187.2 105.6,42 128.8,187.2 152,332.4 128.8,187.2 37.6,295.2 128.8,187.2 220,79.2 128.8,187.2 
			64,34.8 128.8,187.2 193.6,339.6 128.8,187.2 32.8,298.8 128.8,187.2 224.8,75.6 128.8,187.2 61.6,27.6 128.8,187.2 196,346.8 
			128.8,187.2 127.2,187.2 128.8,187.2 130.4,187.2 128.8,187.2 128.8,183.6 128.8,187.2 128.8,189.6 128.8,187.2 61.6,280.8 
			128.8,187.2 196,93.6 128.8,187.2 72.8,75.6 128.8,187.2 184.8,298.8 128.8,187.2 128.8,189.6 128.8,187.2 128.8,184.8 
			128.8,187.2 127.2,186 128.8,187.2 130.4,188.4 128.8,187.2 106.4,344.4 128.8,187.2 151.2,30 128.8,187.2 34.4,150 128.8,187.2 
			223.2,224.4 128.8,187.2 113.6,228 128.8,187.2 144,146.4 128.8,187.2 104,162 128.8,187.2 153.6,212.4 128.8,187.2 116,264 
			128.8,187.2 141.6,110.4 128.8,187.2 83.2,165.6 128.8,187.2 174.4,207.6 		"/>
		
			<radialGradient id="SVGID_00000024709336487710507000000008245740007628566193_" cx="4027.4939" cy="7415.2871" r="32.7828" gradientTransform="matrix(1.5659 0 0 2.6088 -6176.9385 -19157.623)" gradientUnits="userSpaceOnUse">
			<stop  offset="0" style="stop-color:#230000"/>
			<stop  offset="0.73" style="stop-color:#93432A"/>
			<stop  offset="1" style="stop-color:#230000"/>
		</radialGradient>
		
			<ellipse style="opacity:0.15;fill:url(#SVGID_00000024709336487710507000000008245740007628566193_);enable-background:new    ;" cx="128.8" cy="187.2" rx="51.2" ry="85.2"/>
		
			<radialGradient id="SVGID_00000103227752687149284490000015190192109016194218_" cx="4027.4094" cy="7415.2871" r="16.425" gradientTransform="matrix(1.5659 0 0 2.6088 -6176.9385 -19157.623)" gradientUnits="userSpaceOnUse">
			<stop  offset="0.15" style="stop-color:#FFFFFF"/>
			<stop  offset="0.2114" style="stop-color:#E2D1D2"/>
			<stop  offset="0.2918" style="stop-color:#BF9A9C"/>
			<stop  offset="0.3613" style="stop-color:#A67276"/>
			<stop  offset="0.4163" style="stop-color:#975A5E"/>
			<stop  offset="0.45" style="stop-color:#915155"/>
			<stop  offset="0.5553" style="stop-color:#6C3638"/>
			<stop  offset="0.6842" style="stop-color:#44191A"/>
			<stop  offset="0.787" style="stop-color:#2C0707"/>
			<stop  offset="0.85" style="stop-color:#230000"/>
			<stop  offset="0.8572" style="stop-color:#270201"/>
			<stop  offset="0.8647" style="stop-color:#340805"/>
			<stop  offset="0.8723" style="stop-color:#48120B"/>
			<stop  offset="0.88" style="stop-color:#652114"/>
			<stop  offset="0.8878" style="stop-color:#8B331F"/>
			<stop  offset="0.8955" style="stop-color:#B8492D"/>
			<stop  offset="0.9" style="stop-color:#D65836"/>
			<stop  offset="0.903" style="stop-color:#C95232"/>
			<stop  offset="0.9146" style="stop-color:#9D3C25"/>
			<stop  offset="0.9267" style="stop-color:#782A1A"/>
			<stop  offset="0.9392" style="stop-color:#591B10"/>
			<stop  offset="0.9523" style="stop-color:#410F09"/>
			<stop  offset="0.9661" style="stop-color:#300604"/>
			<stop  offset="0.9812" style="stop-color:#260201"/>
			<stop  offset="1" style="stop-color:#230000"/>
		</radialGradient>
		
			<ellipse style="opacity:0.5;fill:url(#SVGID_00000103227752687149284490000015190192109016194218_);enable-background:new    ;" cx="128.8" cy="187.2" rx="25.6" ry="43.2"/>
		
			<radialGradient id="SVGID_00000003786377685585485310000007040350921982949026_" cx="4027.4595" cy="7415.2871" r="13.6751" gradientTransform="matrix(1.5659 0 0 2.6088 -6176.9385 -19157.623)" gradientUnits="userSpaceOnUse">
			<stop  offset="0.15" style="stop-color:#FFFFFF"/>
			<stop  offset="0.2824" style="stop-color:#C2C2C2"/>
			<stop  offset="0.4253" style="stop-color:#888888"/>
			<stop  offset="0.5636" style="stop-color:#575757"/>
			<stop  offset="0.6936" style="stop-color:#313131"/>
			<stop  offset="0.8134" style="stop-color:#161616"/>
			<stop  offset="0.9192" style="stop-color:#060606"/>
			<stop  offset="1" style="stop-color:#000000"/>
		</radialGradient>
		
			<ellipse style="fill:url(#SVGID_00000003786377685585485310000007040350921982949026_);" cx="128.8" cy="187.2" rx="21.6" ry="36"/>
		
			<polyline style="opacity:0.03;fill:none;stroke:#FFFFFF;stroke-width:2;stroke-miterlimit:10;enable-background:new    ;" points="
			128.8,187.2 60,211.2 128.8,187.2 197.6,163.2 128.8,187.2 114.4,73.2 128.8,187.2 143.2,301.2 128.8,187.2 73.6,322.8 
			128.8,187.2 184,51.6 128.8,187.2 47.2,94.8 128.8,187.2 210.4,279.6 128.8,187.2 54.4,354 128.8,187.2 203.2,20.4 128.8,187.2 
			28,63.6 128.8,187.2 228.8,310.8 128.8,187.2 105.6,264 128.8,187.2 152,111.6 128.8,187.2 83.2,147.6 128.8,187.2 174.4,225.6 
			128.8,187.2 76.8,175.2 128.8,187.2 180.8,199.2 128.8,187.2 136,99.6 128.8,187.2 121.6,274.8 128.8,187.2 14.4,242.4 
			128.8,187.2 243.2,132 128.8,187.2 96,-3.6 128.8,187.2 161.6,378 128.8,187.2 41.6,225.6 128.8,187.2 215.2,148.8 128.8,187.2 
			105.6,42 128.8,187.2 152,332.4 128.8,187.2 37.6,295.2 128.8,187.2 220,79.2 128.8,187.2 64,34.8 128.8,187.2 193.6,339.6 
			128.8,187.2 32.8,298.8 128.8,187.2 224.8,75.6 128.8,187.2 61.6,27.6 128.8,187.2 196,346.8 128.8,187.2 127.2,187.2 
			128.8,187.2 130.4,187.2 128.8,187.2 128.8,183.6 128.8,187.2 128.8,189.6 128.8,187.2 61.6,280.8 128.8,187.2 196,93.6 
			128.8,187.2 72.8,75.6 128.8,187.2 184.8,298.8 128.8,187.2 128.8,189.6 128.8,187.2 128.8,184.8 128.8,187.2 127.2,186 
			128.8,187.2 130.4,188.4 128.8,187.2 106.4,344.4 128.8,187.2 151.2,30 128.8,187.2 34.4,150 128.8,187.2 223.2,224.4 
			128.8,187.2 113.6,228 128.8,187.2 144,146.4 128.8,187.2 104,162 128.8,187.2 153.6,212.4 128.8,187.2 116,264 128.8,187.2 
			141.6,110.4 128.8,187.2 83.2,165.6 128.8,187.2 174.4,207.6 		"/>
	</g>
	<g>
		<rect y="396" style="fill:#DB97B0;stroke:#010101;stroke-miterlimit:10;" width="800" height="132"/>
		<line style="fill:none;stroke:#010101;stroke-miterlimit:10;" x1="0" y1="506.4" x2="800" y2="506.4"/>
		<line style="fill:none;stroke:#010101;stroke-miterlimit:10;" x1="0" y1="483.6" x2="800" y2="483.6"/>
		<line style="fill:none;stroke:#010101;stroke-miterlimit:10;" x1="0" y1="462" x2="800" y2="462"/>
		<line style="fill:none;stroke:#010101;stroke-miterlimit:10;" x1="0" y1="440.4" x2="800" y2="440.4"/>
		<line style="fill:none;stroke:#010101;stroke-miterlimit:10;" x1="0" y1="417.6" x2="800" y2="417.6"/>
		<line style="fill:none;stroke:#010101;stroke-miterlimit:10;" x1="666.4" y1="396" x2="666.4" y2="528"/>
		<line style="fill:none;stroke:#010101;stroke-miterlimit:10;" x1="533.6" y1="396" x2="533.6" y2="528"/>
		<line style="fill:none;stroke:#010101;stroke-miterlimit:10;" x1="400" y1="396" x2="400" y2="528"/>
		<line style="fill:none;stroke:#010101;stroke-miterlimit:10;" x1="266.4" y1="396" x2="266.4" y2="528"/>
		<line style="fill:none;stroke:#010101;stroke-miterlimit:10;" x1="133.6" y1="396" x2="133.6" y2="528"/>
	</g>
	<polygon style="fill:#CCD6ED;stroke:#010101;stroke-miterlimit:10;" points="72,274.8 17.6,396 114.4,396 	"/>
	<polygon style="fill:#285999;stroke:#010101;stroke-miterlimit:10;" points="240.8,396 354.4,396 297.6,145.2 	"/>
	<polyline style="fill:#497CA0;stroke:#010101;stroke-miterlimit:10;" points="654.4,396 756.8,189.6 795.2,396 655.2,396 	"/>
	
		<radialGradient id="SVGID_00000026126018220043688090000017176727595628496571_" cx="4237.8887" cy="-6486.7666" r="13.3845" gradientTransform="matrix(1.5659 0 0 -2.6088 -6176.9385 -16576.3184)" gradientUnits="userSpaceOnUse">
		<stop  offset="0.1" style="stop-color:#000000"/>
		<stop  offset="0.1478" style="stop-color:#191407"/>
		<stop  offset="0.2051" style="stop-color:#2F260D"/>
		<stop  offset="0.2728" style="stop-color:#403312"/>
		<stop  offset="0.3565" style="stop-color:#4B3D16"/>
		<stop  offset="0.474" style="stop-color:#524217"/>
		<stop  offset="0.8" style="stop-color:#544418"/>
		<stop  offset="1" style="stop-color:#000000"/>
	</radialGradient>
	
		<ellipse style="opacity:0.25;fill:url(#SVGID_00000026126018220043688090000017176727595628496571_);enable-background:new    ;" cx="458.4" cy="346.8" rx="20.8" ry="34.8"/>
	
		<radialGradient id="SVGID_00000057853135062425490290000017511083740022293148_" cx="4340.9678" cy="-6420.2407" r="0.4457" gradientTransform="matrix(1.5659 0 0 -2.6088 -6176.9385 -16576.3184)" gradientUnits="userSpaceOnUse">
		<stop  offset="0" style="stop-color:#CAE095"/>
		<stop  offset="0.0582" style="stop-color:#A8BA7C"/>
		<stop  offset="0.1353" style="stop-color:#818F5F"/>
		<stop  offset="0.2184" style="stop-color:#5E6845"/>
		<stop  offset="0.3066" style="stop-color:#414830"/>
		<stop  offset="0.4013" style="stop-color:#292E1E"/>
		<stop  offset="0.5049" style="stop-color:#171911"/>
		<stop  offset="0.622" style="stop-color:#0A0B07"/>
		<stop  offset="0.764" style="stop-color:#020302"/>
		<stop  offset="1" style="stop-color:#000000"/>
	</radialGradient>
	<ellipse style="fill:url(#SVGID_00000057853135062425490290000017511083740022293148_);" cx="620" cy="172.8" rx="0.8" ry="1.2"/>
	
		<radialGradient id="SVGID_00000001661684472023825020000012893507959349240992_" cx="4355.1094" cy="-6411.1138" r="0.4461" gradientTransform="matrix(1.5659 0 0 -2.6088 -6176.9385 -16576.3184)" gradientUnits="userSpaceOnUse">
		<stop  offset="0" style="stop-color:#CAE095"/>
		<stop  offset="0.0582" style="stop-color:#A8BA7C"/>
		<stop  offset="0.1353" style="stop-color:#818F5F"/>
		<stop  offset="0.2184" style="stop-color:#5E6845"/>
		<stop  offset="0.3066" style="stop-color:#414830"/>
		<stop  offset="0.4013" style="stop-color:#292E1E"/>
		<stop  offset="0.5049" style="stop-color:#171911"/>
		<stop  offset="0.622" style="stop-color:#0A0B07"/>
		<stop  offset="0.764" style="stop-color:#020302"/>
		<stop  offset="1" style="stop-color:#000000"/>
	</radialGradient>
	
		<ellipse style="fill:url(#SVGID_00000001661684472023825020000012893507959349240992_);" cx="641.6" cy="148.8" rx="0.8" ry="1.2"/>
	
		<radialGradient id="SVGID_00000000910558375021288640000006353424032123010959_" cx="4350.4204" cy="-6414.1396" r="3.3461" gradientTransform="matrix(1.5659 0 0 -2.6088 -6176.9385 -16576.3184)" gradientUnits="userSpaceOnUse">
		<stop  offset="0.05" style="stop-color:#000000"/>
		<stop  offset="0.0884" style="stop-color:#030904"/>
		<stop  offset="0.2952" style="stop-color:#133315"/>
		<stop  offset="0.4817" style="stop-color:#1F5222"/>
		<stop  offset="0.6396" style="stop-color:#256529"/>
		<stop  offset="0.75" style="stop-color:#286C2C"/>
		<stop  offset="0.7903" style="stop-color:#4C6C19"/>
		<stop  offset="0.8355" style="stop-color:#6E6B07"/>
		<stop  offset="0.86" style="stop-color:#7B6B00"/>
		<stop  offset="0.8879" style="stop-color:#776800"/>
		<stop  offset="0.9129" style="stop-color:#6D5E00"/>
		<stop  offset="0.9366" style="stop-color:#5A4F00"/>
		<stop  offset="0.9597" style="stop-color:#413800"/>
		<stop  offset="0.9821" style="stop-color:#201C00"/>
		<stop  offset="1" style="stop-color:#000000"/>
	</radialGradient>
	
		<ellipse style="opacity:0.2;fill:url(#SVGID_00000000910558375021288640000006353424032123010959_);enable-background:new    ;" cx="634.4" cy="157.2" rx="4.8" ry="8.4"/>
	<line style="fill:none;" x1="495.2" y1="307.2" x2="641.6" y2="148.8"/>
	
		<radialGradient id="SVGID_00000029043984704554965180000007863315821101539752_" cx="4261.3325" cy="-6471.6362" r="8.923" gradientTransform="matrix(1.5659 0 0 -2.6088 -6176.9385 -16576.3184)" gradientUnits="userSpaceOnUse">
		<stop  offset="0" style="stop-color:#230000"/>
		<stop  offset="0.73" style="stop-color:#93432A"/>
		<stop  offset="1" style="stop-color:#230000"/>
	</radialGradient>
	
		<ellipse style="opacity:0.15;fill:url(#SVGID_00000029043984704554965180000007863315821101539752_);enable-background:new    ;" cx="495.2" cy="307.2" rx="13.6" ry="22.8"/>
	
		<radialGradient id="SVGID_00000103240996654554271920000000551546700667413134_" cx="4261.3325" cy="-6471.6362" r="4.4615" gradientTransform="matrix(1.5659 0 0 -2.6088 -6176.9385 -16576.3184)" gradientUnits="userSpaceOnUse">
		<stop  offset="0.15" style="stop-color:#FFFFFF"/>
		<stop  offset="0.2114" style="stop-color:#E2D1D2"/>
		<stop  offset="0.2918" style="stop-color:#BF9A9C"/>
		<stop  offset="0.3613" style="stop-color:#A67276"/>
		<stop  offset="0.4163" style="stop-color:#975A5E"/>
		<stop  offset="0.45" style="stop-color:#915155"/>
		<stop  offset="0.5553" style="stop-color:#6C3638"/>
		<stop  offset="0.6842" style="stop-color:#44191A"/>
		<stop  offset="0.787" style="stop-color:#2C0707"/>
		<stop  offset="0.85" style="stop-color:#230000"/>
		<stop  offset="0.8572" style="stop-color:#270201"/>
		<stop  offset="0.8647" style="stop-color:#340805"/>
		<stop  offset="0.8723" style="stop-color:#48120B"/>
		<stop  offset="0.88" style="stop-color:#652114"/>
		<stop  offset="0.8878" style="stop-color:#8B331F"/>
		<stop  offset="0.8955" style="stop-color:#B8492D"/>
		<stop  offset="0.9" style="stop-color:#D65836"/>
		<stop  offset="0.903" style="stop-color:#C95232"/>
		<stop  offset="0.9146" style="stop-color:#9D3C25"/>
		<stop  offset="0.9267" style="stop-color:#782A1A"/>
		<stop  offset="0.9392" style="stop-color:#591B10"/>
		<stop  offset="0.9523" style="stop-color:#410F09"/>
		<stop  offset="0.9661" style="stop-color:#300604"/>
		<stop  offset="0.9812" style="stop-color:#260201"/>
		<stop  offset="1" style="stop-color:#230000"/>
	</radialGradient>
	
		<ellipse style="opacity:0.5;fill:url(#SVGID_00000103240996654554271920000000551546700667413134_);enable-background:new    ;" cx="495.2" cy="307.2" rx="7.2" ry="12"/>
	
		<radialGradient id="SVGID_00000129911164933019858450000013202239693316724873_" cx="4261.3325" cy="-6471.6362" r="3.7179" gradientTransform="matrix(1.5659 0 0 -2.6088 -6176.9385 -16576.3184)" gradientUnits="userSpaceOnUse">
		<stop  offset="0.15" style="stop-color:#FFFFFF"/>
		<stop  offset="0.2824" style="stop-color:#C2C2C2"/>
		<stop  offset="0.4253" style="stop-color:#888888"/>
		<stop  offset="0.5636" style="stop-color:#575757"/>
		<stop  offset="0.6936" style="stop-color:#313131"/>
		<stop  offset="0.8134" style="stop-color:#161616"/>
		<stop  offset="0.9192" style="stop-color:#060606"/>
		<stop  offset="1" style="stop-color:#000000"/>
	</radialGradient>
	
		<ellipse style="fill:url(#SVGID_00000129911164933019858450000013202239693316724873_);" cx="495.2" cy="307.2" rx="5.6" ry="9.6"/>
	<polyline style="opacity:0.03;fill:none;stroke:#FFFFFF;stroke-width:2;stroke-miterlimit:10;enable-background:new    ;" points="
		495.2,307.2 490.4,315.6 495.2,307.2 500,297.6 495.2,307.2 489.6,298.8 495.2,307.2 500.8,314.4 495.2,307.2 483.2,334.8 
		495.2,307.2 506.4,278.4 495.2,307.2 478.4,288 495.2,307.2 512,326.4 495.2,307.2 497.6,345.6 495.2,307.2 492,267.6 495.2,307.2 
		471.2,312 495.2,307.2 518.4,302.4 495.2,307.2 493.6,328.8 495.2,307.2 496.8,284.4 495.2,307.2 481.6,303.6 495.2,307.2 
		508.8,309.6 495.2,307.2 488,322.8 495.2,307.2 501.6,291.6 495.2,307.2 485.6,296.4 495.2,307.2 504,318 495.2,307.2 493.6,312 
		495.2,307.2 496,302.4 495.2,307.2 492,304.8 495.2,307.2 497.6,308.4 495.2,307.2 476.8,330 495.2,307.2 513.6,284.4 495.2,307.2 
		480.8,276 495.2,307.2 508.8,337.2 495.2,307.2 502.4,350.4 495.2,307.2 487.2,264 495.2,307.2 468.8,319.2 495.2,307.2 520.8,294 
		495.2,307.2 496,354 495.2,307.2 493.6,260.4 495.2,307.2 467.2,309.6 495.2,307.2 523.2,304.8 495.2,307.2 488.8,360 495.2,307.2 
		500.8,254.4 495.2,307.2 463.2,296.4 495.2,307.2 526.4,316.8 495.2,307.2 484,348 495.2,307.2 505.6,265.2 495.2,307.2 
		470.4,289.2 495.2,307.2 520,325.2 495.2,307.2 496,315.6 495.2,307.2 494.4,298.8 495.2,307.2 489.6,308.4 495.2,307.2 500,306 
		495.2,307.2 474.4,332.4 495.2,307.2 515.2,280.8 495.2,307.2 479.2,273.6 495.2,307.2 510.4,340.8 495.2,307.2 495.2,348 
		495.2,307.2 494.4,266.4 495.2,307.2 470.4,307.2 495.2,307.2 519.2,306 495.2,307.2 494.4,308.4 495.2,307.2 495.2,304.8 
		495.2,307.2 493.6,306 495.2,307.2 496,308.4 	"/>
	
		<radialGradient id="SVGID_00000078754346903723857250000010478920412098625679_" cx="4355.1094" cy="-6411.1138" r="6.6923" gradientTransform="matrix(1.5659 0 0 -2.6088 -6176.9385 -16576.3184)" gradientUnits="userSpaceOnUse">
		<stop  offset="0.64" style="stop-color:#000000"/>
		<stop  offset="0.7175" style="stop-color:#000200"/>
		<stop  offset="0.7455" style="stop-color:#000902"/>
		<stop  offset="0.7654" style="stop-color:#001405"/>
		<stop  offset="0.7814" style="stop-color:#002509"/>
		<stop  offset="0.7951" style="stop-color:#003B0E"/>
		<stop  offset="0.8" style="stop-color:#004510"/>
		<stop  offset="0.8154" style="stop-color:#182809"/>
		<stop  offset="0.8312" style="stop-color:#2B1204"/>
		<stop  offset="0.8464" style="stop-color:#360501"/>
		<stop  offset="0.86" style="stop-color:#3A0000"/>
		<stop  offset="0.8719" style="stop-color:#250000"/>
		<stop  offset="0.8864" style="stop-color:#140000"/>
		<stop  offset="0.9045" style="stop-color:#090000"/>
		<stop  offset="0.9298" style="stop-color:#020000"/>
		<stop  offset="1" style="stop-color:#000000"/>
	</radialGradient>
	
		<ellipse style="opacity:0.5;fill:url(#SVGID_00000078754346903723857250000010478920412098625679_);enable-background:new    ;" cx="641.6" cy="148.8" rx="10.4" ry="18"/>
	
		<radialGradient id="SVGID_00000008854557485282698790000015886784196064929979_" cx="4283.0176" cy="-6457.6411" r="1.7846" gradientTransform="matrix(1.5659 0 0 -2.6088 -6176.9385 -16576.3184)" gradientUnits="userSpaceOnUse">
		<stop  offset="0.1" style="stop-color:#000000"/>
		<stop  offset="0.1333" style="stop-color:#070B08"/>
		<stop  offset="0.27" style="stop-color:#223524"/>
		<stop  offset="0.4098" style="stop-color:#39573C"/>
		<stop  offset="0.5513" style="stop-color:#4A724F"/>
		<stop  offset="0.6952" style="stop-color:#56855C"/>
		<stop  offset="0.8428" style="stop-color:#5E9063"/>
		<stop  offset="1" style="stop-color:#609466"/>
	</radialGradient>
	<ellipse style="fill:url(#SVGID_00000008854557485282698790000015886784196064929979_);" cx="528.8" cy="270" rx="3.2" ry="4.8"/>
	
		<radialGradient id="SVGID_00000021119899484043027950000001236957023979683724_" cx="4327.0552" cy="-6429.2192" r="1.2554" gradientTransform="matrix(1.5659 0 0 -2.6088 -6176.9385 -16576.3184)" gradientUnits="userSpaceOnUse">
		<stop  offset="0.1" style="stop-color:#004461"/>
		<stop  offset="0.1101" style="stop-color:#00425F"/>
		<stop  offset="0.2793" style="stop-color:#002B3D"/>
		<stop  offset="0.452" style="stop-color:#001822"/>
		<stop  offset="0.6276" style="stop-color:#000B0F"/>
		<stop  offset="0.808" style="stop-color:#000304"/>
		<stop  offset="1" style="stop-color:#000000"/>
	</radialGradient>
	
		<ellipse style="fill:url(#SVGID_00000021119899484043027950000001236957023979683724_);" cx="597.6" cy="195.6" rx="2.4" ry="3.6"/>
	
		<radialGradient id="SVGID_00000055674934344410760400000004291539595896121234_" cx="4328.1646" cy="-6428.5034" r="1.1783" gradientTransform="matrix(1.5659 0 0 -2.6088 -6176.9385 -16576.3184)" gradientUnits="userSpaceOnUse">
		<stop  offset="0.1" style="stop-color:#4B1E63"/>
		<stop  offset="0.1186" style="stop-color:#481D5F"/>
		<stop  offset="0.2862" style="stop-color:#2E123D"/>
		<stop  offset="0.4573" style="stop-color:#1A0A22"/>
		<stop  offset="0.6312" style="stop-color:#0B050F"/>
		<stop  offset="0.8098" style="stop-color:#030104"/>
		<stop  offset="1" style="stop-color:#000000"/>
	</radialGradient>
	
		<ellipse style="fill:url(#SVGID_00000055674934344410760400000004291539595896121234_);" cx="599.2" cy="194.4" rx="1.6" ry="3.6"/>
	
		<radialGradient id="SVGID_00000163791296274486967080000007738127640538311601_" cx="4252.1982" cy="-6477.5312" r="1.5882" gradientTransform="matrix(1.5659 0 0 -2.6088 -6176.9385 -16576.3184)" gradientUnits="userSpaceOnUse">
		<stop  offset="0.1" style="stop-color:#000000"/>
		<stop  offset="0.2047" style="stop-color:#1C0608"/>
		<stop  offset="0.3558" style="stop-color:#3E0C12"/>
		<stop  offset="0.5102" style="stop-color:#59111A"/>
		<stop  offset="0.6672" style="stop-color:#6C1520"/>
		<stop  offset="0.8284" style="stop-color:#771723"/>
		<stop  offset="1" style="stop-color:#7B1824"/>
	</radialGradient>
	
		<ellipse style="fill:url(#SVGID_00000163791296274486967080000007738127640538311601_);" cx="480.8" cy="321.6" rx="2.4" ry="3.6"/>
</g>
</svg>
